<?xml version="1.0" standalone="no"?>
<!DOCTYPE svg PUBLIC "-//W3C//DTD SVG 1.1//EN" "http://www.w3.org/Graphics/SVG/1.1/DTD/svg11.dtd">
<svg xmlns="http://www.w3.org/2000/svg">
<metadata>ZJINH</metadata>
<defs>
<font id="slimf-icon" horiz-adv-x="1000" >
<font-face font-family="slimf-icon" font-weight="400" font-stretch="normal" units-per-em="1000" ascent="850" descent="-150" />
<missing-glyph horiz-adv-x="1000" />
<glyph glyph-name="heart" unicode="&#xe800;" d="M500-85q-14 0-25 10l-348 336q-5 5-15 15t-31 37-38 54-30 67-13 77q0 123 71 192t196 70q34 0 70-12t67-33 54-38 42-38q20 20 42 38t54 38 67 33 70 12q125 0 196-70t71-192q0-123-128-251l-347-335q-10-10-25-10z" horiz-adv-x="1000" />

<glyph glyph-name="heart-o" unicode="&#xe801;" d="M929 511q0 46-12 80t-31 55-46 33-52 18-55 4-62-14-62-36-48-40-34-34q-10-13-27-13t-27 13q-14 15-34 34t-48 40-62 36-62 14-55-4-52-18-46-33-31-55-12-80q0-93 105-198l324-312 324 312q105 105 105 198z m71 0q0-123-128-251l-347-335q-10-10-25-10t-25 10l-348 336q-5 5-15 15t-31 37-38 54-30 67-13 77q0 123 71 192t196 70q34 0 70-12t67-33 54-38 42-38q20 20 42 38t54 38 67 33 70 12q125 0 196-70t71-192z" horiz-adv-x="1000" />

<glyph glyph-name="star" unicode="&#xe802;" d="M929 483q0-12-15-27l-202-197 48-279q0-4 0-12 0-11-6-19t-17-9q-10 0-22 7l-251 132-250-132q-12-7-23-7t-17 9-6 19q0 4 1 12l48 279-203 197q-14 15-14 27 0 21 31 26l280 40 126 254q11 23 27 23t28-23l125-254 280-40q32-5 32-26z" horiz-adv-x="927.7" />

<glyph glyph-name="star-o" unicode="&#xe803;" d="M635 284l170 166-235 34-106 213-105-213-236-34 171-166-41-235 211 111 211-111z m294 199q0-12-15-27l-202-197 48-279q0-4 0-12 0-28-23-28-10 0-22 7l-251 132-250-132q-12-7-23-7t-17 9-6 19q0 4 1 12l48 279-203 197q-14 15-14 27 0 21 31 26l280 40 126 254q11 23 27 23t28-23l125-254 280-40q32-5 32-26z" horiz-adv-x="927.7" />

<glyph glyph-name="to-start-alt" unicode="&#xe844;" d="M975 765q11 11 18 8t7-18v-822q0-14-7-18t-18 8l-396 396q-5 5-8 11v-397q0-14-7-18t-18 8l-396 396q-5 5-7 11v-379q0-14-11-25t-25-11h-71q-15 0-25 11t-11 25v786q0 14 11 25t25 11h71q15 0 25-11t11-25v-378q2 5 7 10l396 396q11 11 18 8t7-18v-396q3 5 8 10z" horiz-adv-x="1000" />

<glyph glyph-name="play" unicode="&#xe847;" d="M772 327l-741-412q-13-7-22-2t-9 20v822q0 14 9 20t22-2l741-412q13-7 13-17t-13-17z" horiz-adv-x="785.2" />

<glyph glyph-name="stop" unicode="&#xe848;" d="M857 737v-786q0-14-10-25t-26-11h-785q-15 0-25 11t-11 25v786q0 14 11 25t25 11h785q15 0 26-11t10-25z" horiz-adv-x="857.4" />

<glyph glyph-name="pause" unicode="&#xe849;" d="M857 737v-786q0-14-10-25t-26-11h-285q-15 0-25 11t-11 25v786q0 14 11 25t25 11h285q15 0 26-11t10-25z m-500 0v-786q0-14-10-25t-26-11h-285q-15 0-25 11t-11 25v786q0 14 11 25t25 11h285q15 0 26-11t10-25z" horiz-adv-x="857.4" />

<glyph glyph-name="step-forward" unicode="&#xe84a;" d="M25-77q-10-11-18-8t-7 18v822q0 14 7 18t18-8l396-396q5-5 8-10v378q0 14 10 25t25 11h72q14 0 25-11t10-25v-786q0-14-10-25t-25-11h-72q-14 0-25 11t-10 25v379q-3-6-8-11z" horiz-adv-x="571.3" />

<glyph glyph-name="to-end-alt" unicode="&#xe84b;" d="M25-77q-10-11-18-8t-7 18v822q0 14 7 18t18-8l396-396q5-5 8-10v396q0 14 7 18t18-8l396-396q5-5 7-10v378q0 14 11 25t25 11h71q15 0 25-11t11-25v-786q0-14-11-25t-25-11h-71q-15 0-25 11t-11 25v379q-2-6-7-11l-396-396q-11-11-18-8t-7 18v397q-3-6-8-11z" horiz-adv-x="1000" />

<glyph glyph-name="step-backward" unicode="&#xe84c;" d="M546 765q11 11 18 8t7-18v-822q0-14-7-18t-18 8l-396 396q-5 5-7 11v-379q0-14-11-25t-25-11h-71q-15 0-25 11t-11 25v786q0 14 11 25t25 11h71q15 0 25-11t11-25v-378q2 5 7 10z" horiz-adv-x="571.3" />

<glyph glyph-name="address-book" unicode="&#xe900;" d="M852 531c13 0 23 11 23 24v78c0 13-10 23-23 23h-39v94c0 52-42 94-94 94h-625c-52 0-94-42-94-94v-813c0-51 42-93 94-93h625c52 0 94 42 94 93v94h39c13 0 23 11 23 24v78c0 13-10 23-23 23h-39v125h39c13 0 23 11 23 24v78c0 13-10 23-23 23h-39v125h39z m-102 102v-696c0-17-14-31-31-31h-625c-17 0-31 14-31 31v813c0 17 14 31 31 31h625c17 0 31-14 31-31v-117z m-222-293c22 27 35 61 35 98 0 86-71 156-157 156s-156-70-156-156c0-37 13-71 34-98-74-25-96-93-96-134v-26c0-48 38-86 85-86h266c47 0 86 38 86 86v26c0 41-22 110-97 134z m-122 191c52 0 94-42 94-93s-42-94-94-94-93 42-93 94 42 93 93 93z m157-351c0-13-11-24-24-24h-266c-12 0-23 11-23 24v26c0 35 23 66 57 75l40 12c18-8 38-12 59-12s41 4 60 12l40-12c33-9 57-40 57-75v-26z" horiz-adv-x="875" />

<glyph glyph-name="address-card" unicode="&#xe901;" d="M906 719h-812c-52 0-94-42-94-94v-562c0-52 42-94 94-94h812c52 0 94 42 94 94v562c0 52-42 94-94 94z m32-656c0-18-14-32-32-32h-812c-17 0-31 14-31 32v562c0 17 14 31 31 31h812c18 0 32-14 32-31v-562z m-86 156h-204c-12 0-23 10-23 23v16c0 13 11 23 23 23h204c13 0 23-10 23-23v-16c0-13-10-23-23-23z m0 125h-204c-12 0-23 10-23 23v16c0 13 11 23 23 23h204c13 0 23-10 23-23v-16c0-13-10-23-23-23z m0 125h-204c-12 0-23 10-23 23v16c0 13 11 23 23 23h204c13 0 23-10 23-23v-16c0-13-10-23-23-23z m-386-129c21 27 34 61 34 98 0 86-70 156-156 156s-156-70-156-156c0-37 12-71 34-98-75-25-97-93-97-134v-26c0-48 39-86 86-86h266c47 0 86 38 86 86v26c0 41-23 110-97 134z m-122 191c52 0 94-42 94-93s-42-94-94-94-94 42-94 94 42 93 94 93z m156-351c0-13-10-24-23-24h-266c-13 0-23 11-23 24v26c0 35 23 66 56 75l41 12c18-8 38-12 59-12s41 4 59 12l40-12c34-9 57-40 57-75v-26z" horiz-adv-x="1000" />

<glyph glyph-name="adjust" unicode="&#xe902;" d="M500 766c234 0 422-190 422-422 0-234-190-422-422-422-234 0-422 190-422 422 0 234 190 422 422 422z m0 62c-267 0-484-217-484-484s217-485 484-485 484 217 484 485-216 484-484 484z m-62-242v-484c-106 27-188 123-188 242 0 119 82 215 188 242z m62 70c-173 0-312-140-312-312s139-313 312-313v625z" horiz-adv-x="1000" />

<glyph glyph-name="alarm-clock" unicode="&#xe903;" d="M583 163l-9-13c-8-11-22-13-33-6l-124 86c-7 4-11 11-11 19v259c0 13 11 23 24 23h16c12 0 23-10 23-23v-238l108-75c10-7 13-22 6-32z m155-200l65-66c12-12 12-32 0-44-12-12-32-12-44 0l-70 70c-71-50-158-79-251-79s-181 29-252 79l-70-70c-12-12-32-12-44 0s-12 32 0 44l66 66c-85 80-138 193-138 318 0 74 18 143 50 204-31 38-50 87-50 140 0 121 98 219 219 219 87 0 163-52 198-126 14 1 28 1 41 0 35 74 110 126 198 126 121 0 219-98 219-219 0-53-19-102-50-140 32-61 50-130 50-204 0-125-53-238-137-318z m-213 747c108-22 201-83 264-168 15 24 24 53 24 83 0 86-71 156-157 156-55 0-103-28-131-71z m-462-85c0-30 8-59 23-83 63 85 157 146 264 168-28 43-76 71-131 71-86 0-156-70-156-156z m375 31c-207 0-375-168-375-375s168-375 375-375 375 168 375 375-168 375-375 375z" horiz-adv-x="875" />

<glyph glyph-name="align-center" unicode="&#xe904;" d="M688 742v-47c0-6-6-11-12-11v0h-477c-6 0-11 5-11 11v0 47c0 7 5 12 11 12v0h477c6 0 12-5 12-12v0z m-676-308h851c7 0 12 5 12 11v0 47c0 7-5 12-12 12v0h-851c-7 0-12-5-12-12v0-47c0-6 5-11 12-11v0z m0-500h851c7 0 12 5 12 11v0 47c0 7-5 12-12 12v0h-851c-7 0-12-5-12-12v0-47c0-6 5-11 12-11v0z m664 320h-477c-6 0-11-5-11-12v0-47c0-6 5-11 11-11v0h477c6 0 12 5 12 11v0 47c0 7-6 12-12 12v0z" horiz-adv-x="875" />

<glyph glyph-name="align-justify" unicode="&#xe905;" d="M0 695v47c0 7 5 12 12 12v0h851c7 0 12-5 12-12v0-47c0-6-5-11-12-11v0h-851c-7 0-12 5-12 11v0z m12-261h851c7 0 12 5 12 11v0 47c0 7-5 12-12 12v0h-851c-7 0-12-5-12-12v0-47c0-6 5-11 12-11v0z m0-500h851c7 0 12 5 12 11v0 47c0 7-5 12-12 12v0h-851c-7 0-12-5-12-12v0-47c0-6 5-11 12-11v0z m0 250h851c7 0 12 5 12 11v0 47c0 7-5 12-12 12v0h-851c-7 0-12-5-12-12v0-47c0-6 5-11 12-11v0z" horiz-adv-x="875" />

<glyph glyph-name="align-left" unicode="&#xe906;" d="M563 742v-47c0-6-6-11-12-11v0h-539c-7 0-12 5-12 11v0 47c0 7 5 12 12 12v0h539c6 0 12-5 12-12v0z m-551-308h851c7 0 12 5 12 11v0 47c0 7-5 12-12 12v0h-851c-7 0-12-5-12-12v0-47c0-6 5-11 12-11v0z m0-500h851c7 0 12 5 12 11v0 47c0 7-5 12-12 12v0h-851c-7 0-12-5-12-12v0-47c0-6 5-11 12-11v0z m539 320h-539c-7 0-12-5-12-12v0-47c0-6 5-11 12-11v0h539c6 0 12 5 12 11v0 47c0 7-6 12-12 12v0z" horiz-adv-x="875" />

<glyph glyph-name="align-right" unicode="&#xe907;" d="M313 695v47c0 7 5 12 11 12v0h539c7 0 12-5 12-12v0-47c0-6-5-11-12-11v0h-539c-6 0-11 5-11 11v0z m-301-261h851c7 0 12 5 12 11v0 47c0 7-5 12-12 12v0h-851c-7 0-12-5-12-12v0-47c0-6 5-11 12-11v0z m0-500h851c7 0 12 5 12 11v0 47c0 7-5 12-12 12v0h-851c-7 0-12-5-12-12v0-47c0-6 5-11 12-11v0z m312 250h539c7 0 12 5 12 11v0 47c0 7-5 12-12 12v0h-539c-6 0-11-5-11-12v0-47c0-6 5-11 11-11v0z" horiz-adv-x="875" />

<glyph glyph-name="ambulance" unicode="&#xe909;" d="M578 469h-109v109c0 9-7 16-16 16h-94c-8 0-15-7-15-16v-109h-110c-8 0-15-7-15-16v-94c0-8 7-15 15-15h110v-110c0-8 7-15 15-15h94c9 0 16 7 16 15v110h109c9 0 16 7 16 15v94c0 9-7 16-16 16z m656-375h-46v211c0 33-14 65-37 88l-164 164c-23 24-55 37-88 37h-86v96c0 50-44 91-97 91h-619c-54 0-97-41-97-91v-568c0-50 43-91 97-91h31c-2-10-3-20-3-31 0-86 70-156 156-156s157 70 157 156c0 11-2 21-4 31h382c-2-10-3-20-3-31 0-86 69-156 156-156s156 70 156 156c0 11-1 21-3 31h112c9 0 16 7 16 16v31c0 9-7 16-16 16z m-953-188c-51 0-93 42-93 94s42 94 93 94 94-42 94-94-42-94-94-94z m469 188h-344c-29 37-74 62-125 62s-95-25-124-62h-60c-19 0-34 12-34 28v568c0 16 15 29 34 29h619c19 0 34-13 34-29v-596z m63 437h86c16 0 32-6 44-18l164-164c1-1 2-4 3-5h-297v187z m156-625c-52 0-94 42-94 94s42 94 94 94 94-42 94-94-42-94-94-94z m156 188h-32c-28 37-73 62-124 62s-96-25-124-62h-32v187h312v-187z" horiz-adv-x="1250" />

<glyph glyph-name="american-sign-language-interpreting" unicode="&#xe90a;" d="M1242 427c0 0-81 163-81 163-18 37-65 55-106 35l-108-55-154 15c-10 1-63 1-116-31-15 28-36 40-64 51 33 63-13 150-101 138 3 53-40 101-95 101-23 0-45-9-61-22l0 0c-88-73-145-176-159-289l-64-115s-94-54-94-54c-36-21-49-66-31-104 0 0 81-162 81-162 18-38 65-56 106-35l108 54c158-14 158-14 161-14 39 0 77 11 109 31 9-18 24-32 42-41 5-3 14-7 22-10-33-63 14-151 101-139-3-54 41-100 95-100 23 0 44 8 61 22 88 72 145 175 159 288l64 116s94 54 94 54c36 21 49 66 31 103z m-429-462c24 20 45 43 61 68 10 14-7 31-21 21-39-26-82-43-127-48-43-5-52 60-9 65 30 4 59 14 86 30 15 9 6 32-11 28-48-10-103-3-149 19-40 21-9 78 28 60 40-20 87-23 129-8 17 6 13 30-5 30-65 0-115 30-140 84-19 38 40 67 58 28l0 0c14-29 42-46 73-46 44 0 80 36 80 80 0 50-42 81-80 81-31 0-59-18-73-46l0 0c-18-40-77-11-58 28 24 51 75 83 133 83l167-15c0 0 1 0 1 0 3 0 5 0 8 1l-1 0 120 61c3 1 5 2 8 2 6 0 12-4 14-9l1 0 80-162c4-8 1-18-7-22l-104-61c-3-1-5-3-6-6l0 0-75-135c-1-1-1-3-1-5l0 0c-12-101-61-193-139-257-32-27-76 22-41 51z m-348 200c-9 1-125 12-170 16 0 0-1 0-1 0-3 0-5-1-7-2l0 0-120-60c-2-2-5-2-8-2-6 0-12 3-14 9l0 0-81 161c-4 9-1 19 7 23l105 60c2 2 4 4 5 6l0 0 75 135c1 2 1 4 2 6 11 101 60 192 138 257 33 27 76-22 41-51-24-21-45-44-61-68-10-14 7-31 21-22 39 27 82 43 128 49 17 2 33-9 36-29 2-18-10-34-28-36-30-4-59-14-86-30-15-9-6-33 11-29 48 11 103 3 149-19 40-20 9-78-28-59-40 20-87 23-129 7-17-5-13-30 5-30 65 0 115-29 140-83 18-38-38-68-58-28-14 28-42 46-73 46-44 0-79-36-79-81 0-49 41-80 79-80 31 0 59 18 73 46 0 0 0 0 0 0 18 39 77 11 58-28-24-51-75-84-130-84z m19 146c-3-6-7-17-20-17-5 0-17 4-17 17 0 10 8 18 17 18 13 0 16-11 20-18z m282 65c4 7 7 18 20 18 5 0 17-4 17-18 0-10-8-18-17-18-13 0-16 11-20 18z" horiz-adv-x="1250" />

<glyph glyph-name="anchor" unicode="&#xe90b;" d="M985 327c-9 9-24 9-33 0l-131-131c-14-14-4-40 17-40h96c-33-134-171-237-340-249v562h101c13 0 24 10 24 23v16c0 13-11 23-24 23h-101v67c55 14 96 66 93 127-2 64-54 116-119 119-71 3-130-54-130-125 0-58 39-107 93-121v-67h-101c-13 0-24-10-24-23v-16c0-13 11-23 24-23h101v-562c-169 12-307 115-340 249h96c21 0 32 26 17 40l-131 131c-9 9-24 9-33 0l-131-131c-15-14-4-40 16-40h102c37-188 230-312 436-312 216 0 400 133 435 312h102c21 0 31 26 16 40l-131 131z m-485 392c0 34 28 62 63 62s62-28 62-62-28-63-62-63-63 28-63 63z m-380-500l36 36 37-36h-73z m812 0l37 36 36-36h-73z" horiz-adv-x="1125" />

<glyph glyph-name="angle-double-down" unicode="&#xe90c;" d="M233 330l-226 230c-9 10-9 24 0 34l14 13c9 10 24 10 33 0l196-199 196 199c9 9 24 9 33 0l14-14c9-9 9-24 0-33l-226-230c-10-9-24-9-34 0z m34-250l226 230c9 10 9 24 0 34l-14 13c-9 10-24 10-33 0l-196-199-196 199c-9 9-24 9-33 0l-14-14c-9-9-9-24 0-33l226-230c10-9 24-9 34 0z" horiz-adv-x="500" />

<glyph glyph-name="angle-double-left" unicode="&#xe90d;" d="M299 360l230 227c9 9 24 9 33 0l14-14c9-9 9-24 0-33l-200-196 200-196c9-9 9-24 0-33l-14-14c-9-10-24-10-33 0l-230 226c-9 9-9 24 0 33z m-250-33l230-226c9-10 24-10 33 0l14 14c9 9 9 24 0 33l-200 196 200 196c9 9 9 24 0 33l-14 14c-9 9-24 9-33 0l-230-227c-9-9-9-24 0-33z" horiz-adv-x="625" />

<glyph glyph-name="angle-double-right" unicode="&#xe90e;" d="M326 327l-230-226c-9-10-24-10-33 0l-14 14c-9 9-9 24 0 33l200 196-200 196c-9 9-9 24 0 33l14 14c9 9 24 9 33 0l230-227c9-9 9-24 0-33z m250 33l-230 227c-9 9-24 9-33 0l-14-14c-9-9-9-24 0-33l200-196-200-196c-9-9-9-24 0-33l14-14c9-10 24-10 33 0l230 226c9 9 9 24 0 33z" horiz-adv-x="625" />

<glyph glyph-name="angle-double-up" unicode="&#xe90f;" d="M267 357l226-230c9-9 9-24 0-33l-14-14c-9-9-24-9-33 0l-196 200-196-200c-9-9-24-9-33 0l-14 14c-9 9-9 24 0 33l226 230c10 9 24 9 34 0z m-34 250l-226-230c-9-9-9-24 0-33l14-14c9-9 24-9 33 0l196 200 196-200c9-9 24-9 33 0l14 14c9 9 9 24 0 33l-226 230c-10 9-24 9-34 0z" horiz-adv-x="500" />

<glyph glyph-name="angle-down" unicode="&#xe910;" d="M233 205l-226 230c-9 10-9 24 0 34l14 13c9 10 24 10 33 0l196-199 196 199c9 9 24 9 33 0l14-14c9-9 9-24 0-33l-226-230c-10-9-24-9-34 0z" horiz-adv-x="500" />

<glyph glyph-name="angle-left" unicode="&#xe911;" d="M49 360l230 227c9 9 24 9 33 0l14-14c9-9 9-24 0-33l-200-196 200-196c9-9 9-24 0-33l-14-14c-9-10-24-10-33 0l-230 226c-9 9-9 24 0 33z" horiz-adv-x="375" />

<glyph glyph-name="angle-right" unicode="&#xe912;" d="M326 327l-230-226c-9-10-24-10-33 0l-14 14c-9 9-9 24 0 33l200 196-200 196c-9 9-9 24 0 33l14 14c9 9 24 9 33 0l230-227c9-9 9-24 0-33z" horiz-adv-x="375" />

<glyph glyph-name="angle-up" unicode="&#xe913;" d="M267 482l226-230c9-9 9-24 0-33l-14-14c-9-9-24-9-33 0l-196 200-196-200c-9-9-24-9-33 0l-14 14c-9 9-9 24 0 33l226 230c10 9 24 9 34 0z" horiz-adv-x="500" />

<glyph glyph-name="archive" unicode="&#xe914;" d="M906 781h-812c-52 0-94-42-94-93v-125c0-18 14-32 31-32h32v-531c0-52 42-94 93-94h688c52 0 94 42 94 94v531h31c17 0 31 14 31 32v125c0 51-42 93-94 93z m-31-781c0-17-14-31-31-31h-688c-17 0-31 14-31 31v531h750v-531z m63 594h-875v94c0 17 14 31 31 31h812c17 0 32-14 32-31v-94z m-540-250h204c13 0 23 10 23 23v16c0 13-10 23-23 23h-204c-12 0-23-10-23-23v-16c0-13 11-23 23-23z" horiz-adv-x="1000" />

<glyph glyph-name="arrow-alt-down" unicode="&#xe919;" d="M522 719c23 0 41-18 41-40v-335h228c14 0 21-17 11-27l-336-337c-16-15-41-15-57 0l-336 337c-10 10-3 27 11 27h229v335c0 22 18 40 40 40h169z m0 62h-169c-57 0-103-46-103-102v-273h-166c-69 0-105-84-55-133l336-337c40-40 105-40 145 0l336 337c49 49 15 133-55 133h-166v273c0 56-46 102-103 102z" horiz-adv-x="875" />

<glyph glyph-name="arrow-alt-from-bottom" unicode="&#xe91a;" d="M727-94h-704c-12 0-23 11-23 24v15c0 13 11 24 23 24h704c13 0 23-11 23-24v-15c0-13-10-24-23-24z m-428 188h152c17 0 31 14 31 31v281h183c14 0 21 17 12 27l-280 280c-12 13-32 13-44 0l-280-280c-9-10-2-27 12-27h183v-281c0-17 14-31 31-31z m0-63c-52 0-94 42-94 94v219h-120c-70 0-105 84-56 133l280 280c36 37 96 37 132 0l280-280c49-49 14-133-55-133h-121v-219c0-52-42-94-94-94h-152v0z" horiz-adv-x="750" />

<glyph glyph-name="arrow-alt-from-left" unicode="&#xe91b;" d="M0-8v703c0 13 11 24 23 24h16c13 0 24-11 24-24v-703c0-13-11-23-24-23h-16c-12 0-23 10-23 23z m188 428v-152c0-17 14-31 31-31h281v-184c0-13 17-21 27-11l276 280c12 12 12 32 0 44l-276 279c-10 10-27 3-27-11v-183h-281c-17 0-31-14-31-31z m-63 0c0 52 42 94 94 94h219v120c0 70 84 105 133 56l277-280c36-37 36-96 0-133l-277-279c-49-49-133-14-133 55v121h-219c-52 0-94 42-94 94v152z" horiz-adv-x="875" />

<glyph glyph-name="arrow-alt-from-right" unicode="&#xe91c;" d="M875 695v-703c0-13-10-23-23-23h-16c-13 0-23 10-23 23v703c0 13 10 24 23 24h16c13 0 23-11 23-24z m-187-427v152c0 17-15 31-32 31h-281v183c0 14-17 21-27 11l-276-279c-13-12-13-32 0-44l276-280c10-10 27-3 27 11v184h281c17 0 32 14 32 31z m62 0c0-52-42-94-94-94h-218v-121c0-69-85-104-134-55l-276 279c-37 37-37 96 0 133l276 280c50 49 134 14 134-56v-121h218c52 0 94-42 94-93v-152z" horiz-adv-x="875" />

<glyph glyph-name="arrow-alt-from-top" unicode="&#xe91d;" d="M23 781h704c13 0 23-10 23-23v-16c0-13-10-23-23-23h-704c-12 0-23 10-23 23v16c0 13 11 23 23 23z m428-187h-152c-17 0-31-14-31-31v-282h-183c-14 0-21-16-12-26l280-281c12-12 32-12 44 0l280 281c10 10 3 26-11 26h-184v282c0 17-14 31-31 31z m0 62c52 0 94-42 94-93v-219h121c69 0 104-84 55-133l-280-281c-36-37-96-37-132 0l-280 281c-49 49-14 133 56 133h121v219c0 51 42 93 93 93h152z" horiz-adv-x="750" />

<glyph glyph-name="arrow-alt-left" unicode="&#xe91e;" d="M813 259c0-22-18-40-41-40h-334v-229c0-14-17-21-27-11l-337 336c-15 16-15 42 0 57l337 336c10 10 27 3 27-11v-228h334c23 0 41-18 41-40v-170z m62 0v170c0 56-46 102-103 102h-272v166c0 70-84 105-133 56l-337-337c-40-40-40-105 0-145l337-336c49-49 133-14 133 55v166h272c57 0 103 46 103 103z" horiz-adv-x="875" />

<glyph glyph-name="arrow-alt-right" unicode="&#xe91f;" d="M63 429c0 22 18 40 40 40h335v228c0 14 16 21 26 11l337-336c15-15 15-41 0-57l-337-336c-10-10-26-3-26 11v229h-335c-22 0-40 18-40 40v170z m-63 0v-170c0-57 46-103 103-103h272v-166c0-69 84-104 133-55l337 336c40 40 40 105 0 145l-337 337c-49 49-133 14-133-56v-166h-272c-57 0-103-46-103-102z" horiz-adv-x="875" />

<glyph glyph-name="arrow-alt-to-bottom" unicode="&#xe924;" d="M451 719c17 0 31-14 31-31v-282h184c14 0 21-16 11-26l-280-281c-12-12-32-12-44 0l-280 281c-9 10-2 26 12 26h183v282c0 17 14 31 31 31h152z m0 62h-152c-51 0-93-42-93-93v-219h-121c-70 0-105-84-56-133l280-281c36-37 96-37 132 0l280 280c49 49 14 134-55 134h-121v219c0 51-42 93-94 93z m299-851v15c0 13-10 24-23 24h-704c-12 0-23-11-23-24v-15c0-13 11-24 23-24h704c13 0 23 11 23 24z" horiz-adv-x="750" />

<glyph glyph-name="arrow-alt-to-left" unicode="&#xe925;" d="M813 268c0-17-15-31-32-31h-281v-184c0-14-17-21-27-11l-280 280c-12 12-12 32 0 44l280 280c10 9 27 2 27-12v-183h281c17 0 31-14 31-31v-152z m62 0v152c0 51-42 93-94 93h-218v121c0 70-84 105-134 56l-280-280c-37-37-37-96 0-133l280-279c49-49 133-14 133 55v121h219c52 0 94 42 94 94z m-852-299h16c13 0 24 10 24 23v703c0 13-11 24-24 24h-16c-12 0-23-11-23-24v-703c0-13 11-23 23-23z" horiz-adv-x="875" />

<glyph glyph-name="arrow-alt-to-right" unicode="&#xe926;" d="M63 420c0 17 14 31 31 31h281v183c0 14 17 21 27 12l280-280c12-12 12-32 0-44l-280-280c-10-10-27-3-27 11v184h-281c-17 0-31 14-31 31v152z m-63 0v-152c0-52 42-94 94-94h219v-121c0-69 84-104 133-55l280 279c37 37 37 96 0 133l-280 280c-49 49-133 14-133-56v-120h-219c-52 0-94-43-94-94z m852 299h-16c-13 0-23-11-23-24v-703c0-13 10-23 23-23h16c13 0 23 10 23 23v703c0 13-10 24-23 24z" horiz-adv-x="875" />

<glyph glyph-name="arrow-alt-to-top" unicode="&#xe927;" d="M299-31c-17 0-31 14-31 31v281h-183c-14 0-21 17-12 27l280 280c12 12 32 12 44 0l280-280c10-10 3-27-11-27h-184v-281c0-17-14-31-31-31h-152z m0-63h152c52 0 94 42 94 94v219h120c70 0 105 84 56 133l-280 280c-36 37-96 37-132 0l-280-280c-49-49-14-133 56-133h121v-219c-1-52 42-94 93-94z m-299 852v-16c0-13 11-23 23-23h704c13 0 23 10 23 23v16c0 13-10 23-23 23h-704c-12 0-23-10-23-23z" horiz-adv-x="750" />

<glyph glyph-name="arrow-alt-up" unicode="&#xe928;" d="M353-31c-22 0-40 18-40 40v335h-229c-14 0-21 17-11 26l336 337c16 16 41 16 57 0l336-337c10-9 3-26-11-26h-228v-335c0-22-18-40-41-40h-169z m0-63h169c57 0 103 46 103 103v272h166c69 0 105 84 55 134l-336 336c-40 40-105 40-145 0l-336-336c-49-49-15-134 55-134h166v-272c0-57 46-103 103-103z" horiz-adv-x="875" />

<glyph glyph-name="arrow-down" unicode="&#xe92d;" d="M866 358l-14 14c-9 9-24 9-33 0l-348-348v734c0 13-11 23-24 23h-19c-13 0-24-10-24-23v-734l-348 348c-9 9-24 9-33 0l-14-14c-10-9-10-24 0-33l412-412c9-9 24-9 33 0l412 412c9 10 9 24 0 33z" horiz-adv-x="875" />

<glyph glyph-name="arrow-from-bottom" unicode="&#xe92e;" d="M69 484l289 290c10 10 24 10 34 0l289-290c9-9 9-24 0-33l-14-14c-9-9-24-9-33 0l-226 227v-609c0-13-10-24-23-24h-20c-13 0-23 11-23 24v609l-226-226c-9-10-24-10-33 0l-14 13c-9 9-9 24 0 33z m681-554v15c0 13-10 24-23 24h-704c-12 0-23-11-23-24v-15c0-13 11-24 23-24h704c13 0 23 11 23 24z" horiz-adv-x="750" />

<glyph glyph-name="arrow-from-left" unicode="&#xe92f;" d="M578 649l290-289c9-9 9-24 0-33l-290-289c-9-9-24-9-33 0l-14 14c-9 9-9 24 0 33l227 226h-610c-12 0-23 10-23 23v20c0 12 11 23 23 23h610l-227 225c-9 10-9 24 0 34l14 13c9 10 24 10 33 0z m-555-680h16c13 0 24 10 24 23v703c0 13-11 24-24 24h-16c-12 0-23-11-23-24v-703c0-13 11-23 23-23z" horiz-adv-x="875" />

<glyph glyph-name="arrow-from-right" unicode="&#xe930;" d="M297 38l-290 289c-9 9-9 24 0 33l290 289c9 10 24 10 33 0l14-13c9-10 9-24 0-34l-227-225h610c13 0 23-11 23-23v-20c0-13-10-23-23-23h-610l227-226c9-9 9-24 0-33l-14-14c-9-9-24-9-33 0z m555 681h-16c-13 0-23-11-23-24v-703c0-13 10-23 23-23h16c13 0 23 10 23 23v703c0 13-10 24-23 24z" horiz-adv-x="875" />

<glyph glyph-name="arrow-from-top" unicode="&#xe931;" d="M681 203l-289-290c-10-9-24-9-34 0l-289 290c-9 9-9 24 0 33l14 14c9 9 24 9 33 0l226-226v609c0 13 10 23 23 23h20c13 0 23-10 23-23v-609l226 226c9 9 24 9 33 0l14-14c9-9 9-24 0-33z m-681 555v-16c0-13 11-23 23-23h704c13 0 23 10 23 23v16c0 13-10 23-23 23h-704c-12 0-23-10-23-23z" horiz-adv-x="750" />

<glyph glyph-name="arrow-left" unicode="&#xe932;" d="M452-85l14 14c9 9 9 24 0 33l-349 349h735c13 0 23 10 23 23v20c0 13-10 23-23 23h-735l349 349c9 9 9 24 0 33l-14 14c-9 9-24 9-33 0l-412-413c-9-9-9-24 0-33l412-412c9-9 24-9 33 0z" horiz-adv-x="875" />

<glyph glyph-name="arrow-right" unicode="&#xe933;" d="M423 773l-14-14c-9-9-9-24 0-33l349-349h-735c-12 0-23-10-23-23v-20c0-13 11-23 23-23h735l-349-349c-9-9-9-24 0-33l14-14c9-9 24-9 33 0l412 412c9 9 9 24 0 33l-412 413c-9 9-24 9-33 0z" horiz-adv-x="875" />

<glyph glyph-name="arrows" unicode="&#xe934;" d="M660-5l-143-144c-10-10-24-10-34 0l-143 144c-9 9-9 24 0 33l14 14c9 9 24 9 33 0l80-81h2v352h-352v-2l81-80c9-9 9-24 0-33l-14-14c-9-9-24-9-33 0l-144 143c-9 9-9 24 0 33l144 144c9 9 24 9 33 0l14-14c9-9 9-24 0-33l-81-80v-2h352v351h-2l-80-80c-9-9-24-9-33 0l-14 14c-9 9-9 24 0 33l143 144c10 9 24 9 34 0l143-144c9-9 9-24 0-33l-14-14c-9-9-24-9-33 0l-80 80h-2v-351h352v2l-81 80c-9 9-9 24 0 33l14 14c9 9 24 9 33 0l144-144c9-9 9-24 0-33l-144-143c-9-9-24-9-33 0l-14 14c-9 9-9 24 0 33l81 80v2h-352v-352h2l80 81c9 9 24 9 33 0l14-14c9-9 9-24 0-33z" horiz-adv-x="1000" />

<glyph glyph-name="arrows-alt" unicode="&#xe935;" d="M630 102l-99 0v211h210l0-99c0-57 70-86 110-46l130 130c25 25 25 66 0 91l-130 130c-40 41-110 12-110-45l0-99h-210v210l99 0c57 0 86 70 45 110l-129 130c-26 25-66 25-91 0l-130-130c-41-40-12-110 45-110l99 0v-210h-210l0 99c0 57-70 86-110 45l-130-130c-25-25-25-66 0-91l130-130c40-40 110-11 110 46l0 99h210v-211l-99 0c-57 0-86-69-45-110l130-129c25-26 65-26 91 0l129 129c41 41 12 110-45 110z m181 377l130-130c2-1 3-3 3-5 0-2-1-4-3-6v0l-130-130c-5-5-13-1-13 6l0 260c0 7 8 10 13 5z m-441 162c-7 0-11 9-5 14l129 130c2 2 4 2 6 2 2 0 4 0 6-2v0l130-130c5-5 1-14-6-14l-260 0z m-181-433l-130 130c-2 2-3 4-3 6 0 2 1 4 3 5v0l130 130c5 5 13 2 13-5l0-260c0-7-8-11-13-6z m305-306l-129 130c-6 5-2 14 5 14l260 0c7 0 11-9 6-14l-130-130c-2-1-4-2-6-2-2 0-4 1-6 2v0z" horiz-adv-x="1000" />

<glyph glyph-name="arrows-alt-h" unicode="&#xe936;" d="M750 469v-92h-500v92c0 55-67 83-107 44l-125-125c-24-24-24-64 0-88l125-125c40-40 107-12 107 44v92h500v-92c0-56 67-84 107-44l125 125c24 24 24 64 0 88l-125 125c-40 39-107 11-107-44z m-555-250c0-7-8-11-13-6l-125 125c-1 2-2 4-2 6 0 2 1 4 2 5v0l125 125c5 5 13 2 13-5v-250z m623 255l125-125c1-1 2-3 2-5 0-2-1-4-2-6v0l-125-125c-5-5-13-1-13 6v250c0 7 8 10 13 5z" horiz-adv-x="1000" />

<glyph glyph-name="arrows-alt-v" unicode="&#xe937;" d="M312 94h-91v500h91c56 0 84 67 45 106l-125 125c-25 25-64 25-89 0l-125-125c-39-39-11-106 45-106h91v-500h-91c-56 0-84-68-45-107l125-125c25-24 64-24 89 0l125 125c39 39 11 107-45 107z m-249 554c-7 0-11 9-6 14l125 125c1 1 3 2 6 2 2 0 4-1 5-2v0l125-125c5-5 1-14-6-14h-249z m255-622l-125-125c-1-2-3-3-5-3-3 0-5 1-6 3v0l-125 125c-5 5-1 13 6 13h249c7 0 11-8 6-13z" horiz-adv-x="375" />

<glyph glyph-name="arrows-h" unicode="&#xe938;" d="M781 511c-9-10-9-24 0-34l102-100h-766l102 100c9 10 9 24 0 34l-14 13c-9 10-24 10-33 0l-165-164c-9-9-9-24 0-33l165-164c9-9 24-9 33 0l14 14c9 9 9 24 0 33l-102 101h766l-102-101c-9-9-9-24 0-33l14-14c9-9 24-9 33 0l165 164c9 9 9 24 0 33l-165 164c-9 10-24 10-33 0l-14-13z" horiz-adv-x="1000" />

<glyph glyph-name="arrows-v" unicode="&#xe93d;" d="M354 63c-9 9-24 9-33 0l-100-102v765l100-101c9-9 24-9 33 0l14 14c9 9 9 24 0 33l-164 165c-9 9-24 9-33 0l-164-165c-9-9-9-24 0-33l14-14c9-9 24-9 33 0l100 101v-765l-100 102c-9 9-24 9-33 0l-14-14c-9-9-9-24 0-33l164-165c9-10 24-10 33 0l164 165c9 9 9 24 0 33l-14 14z" horiz-adv-x="375" />

<glyph glyph-name="arrow-to-bottom" unicode="&#xe93e;" d="M681 328l-289-290c-10-9-24-9-34 0l-289 290c-9 9-9 24 0 33l14 14c9 9 24 9 33 0l226-226v609c0 13 10 23 23 23h20c13 0 23-10 23-23v-609l226 226c9 9 24 9 33 0l14-14c9-9 9-24 0-33z m69-398v15c0 13-10 24-23 24h-704c-12 0-23-11-23-24v-15c0-13 11-24 23-24h704c13 0 23 11 23 24z" horiz-adv-x="750" />

<glyph glyph-name="arrow-to-left" unicode="&#xe93f;" d="M422 38l-290 289c-9 9-9 24 0 33l290 289c9 10 24 10 33 0l14-13c9-10 9-24 0-34l-227-225h610c13 0 23-11 23-23v-20c0-13-10-23-23-23h-610l227-226c9-9 9-24 0-33l-14-14c-9-9-24-9-33 0z m-399-69h16c13 0 24 10 24 23v703c0 13-11 24-24 24h-16c-12 0-23-11-23-24v-703c0-13 11-23 23-23z" horiz-adv-x="875" />

<glyph glyph-name="arrow-to-right" unicode="&#xe940;" d="M420 649l-14-13c-9-10-9-24 0-34l227-225h-610c-12 0-23-11-23-23v-20c0-13 11-23 23-23h610l-227-226c-9-9-9-24 0-33l14-14c9-9 24-9 33 0l290 289c10 9 10 24 0 33l-290 289c-9 10-24 10-33 0z m455 46v-703c0-13-10-23-23-23h-16c-13 0-23 10-23 23v703c0 13 10 24 23 24h16c13 0 23-11 23-24z" horiz-adv-x="875" />

<glyph glyph-name="arrow-to-top" unicode="&#xe941;" d="M69 359l289 290c10 10 24 10 34 0l289-290c9-9 9-24 0-33l-14-14c-9-9-24-9-33 0l-226 227v-609c0-13-10-24-23-24h-20c-13 0-23 11-23 24v609l-226-226c-9-10-24-10-33 0l-14 13c-9 9-9 24 0 33z m-69 399v-16c0-13 11-23 23-23h704c13 0 23 10 23 23v16c0 13-10 23-23 23h-704c-12 0-23-10-23-23z" horiz-adv-x="750" />

<glyph glyph-name="arrow-up" unicode="&#xe942;" d="M9 329l14-14c9-9 24-9 33 0l348 349v-734c0-13 11-24 24-24h19c13 0 24 11 24 24v734l348-349c10-9 24-9 34 0l13 14c9 9 9 24 0 33l-412 412c-9 10-24 10-33 0l-412-412c-9-9-9-24 0-33z" horiz-adv-x="875" />

<glyph glyph-name="asterisk" unicode="&#xe944;" d="M928 133l-365 211 365 211c12 6 15 21 9 32l-8 14c-6 11-21 15-32 8l-366-211v422c0 13-10 24-23 24h-16c-13 0-23-11-23-24v-422l-366 211c-11 7-26 3-32-8l-8-14c-6-11-2-26 9-32l366-211-366-211c-12-7-15-21-9-32l8-14c6-11 21-15 32-9l366 212v-423c0-13 10-23 23-23h16c13 0 23 10 23 23v423l366-212c11-6 26-2 32 9l8 14c6 11 3 25-9 32z" horiz-adv-x="1000" />

<glyph glyph-name="at" unicode="&#xe945;" d="M500 828c-268 0-484-216-484-484 0-268 216-485 484-485 103 0 205 34 287 95 11 8 13 23 4 33l-9 12c-8 10-22 12-32 5-72-53-160-82-250-82-233 0-422 189-422 422 0 233 189 422 422 422 231 0 422-157 422-391 0-142-103-211-227-211-38 0-46 21-38 66l63 320c3 15-8 28-23 28h-24c-12 0-21-8-23-19l0 0c-5-23-6-26-8-50-23 53-75 84-143 84-133 0-260-123-260-307 0-120 66-192 177-192 77 0 138 48 169 92-2-54 34-82 90-82 210 0 309 111 309 271 0 266-215 453-484 453z m-74-669c-72 0-114 49-114 131 0 146 99 238 189 238 76 0 114-55 114-129 0-113-75-240-189-240z" horiz-adv-x="1000" />

<glyph glyph-name="audio-description" unicode="&#xe946;" d="M906 719h-812c-52 0-94-42-94-94v-562c0-52 42-94 94-94h812c52 0 94 42 94 94v562c0 52-42 94-94 94z m32-656c0-18-14-32-32-32h-812c-17 0-31 14-31 32v562c0 17 14 31 31 31h812c18 0 32-14 32-31v-562z m-574 189h-131l-26-80c-4-9-12-16-23-16 0 0 0 0 0 0h-20c-16 0-27 16-22 32l116 328c3 9 12 15 22 15h38c10 0 19-6 22-15l0 0 115-328c6-16-6-32-22-32h-20c-10 0-19 7-22 16l-27 80z m-66 214s-8-37-15-58l-34-100h99l-34 100c-7 21-14 58-14 58h-2z m216 42c0 13 11 23 24 23h104c116 0 191-68 191-187 0-118-75-188-191-188h-104c-13 0-24 11-24 24v328z m125-293c76 0 124 45 124 129 0 84-49 129-124 129h-56v-258h56z" horiz-adv-x="1000" />

<glyph glyph-name="backward" unicode="&#xe947;" d="M523 295l375-312c40-33 102-5 102 48v625c0 54-62 82-102 48l-375-313c-30-25-30-71 0-96z m40 48l375 313v-625l-375 312z m-540-48l375-312c40-33 102-5 102 48v625c0 54-62 82-102 48l-375-313c-30-25-30-71 0-96z m40 48l375 313v-625l-375 312z" horiz-adv-x="1000" />

<glyph glyph-name="balance-scale" unicode="&#xe94a;" d="M594 535c54 14 94 63 94 121h226c13 0 24 11 24 24v15c0 13-11 24-24 24h-243c-48 83-169 83-217 0h-243c-13 0-23-11-23-24v-15c0-13 10-24 23-24h227c0-58 39-107 93-121v-566h-320c-13 0-23-11-23-24v-15c0-13 10-24 23-24h703c13 0 24 11 24 24v15c0 13-11 24-24 24h-320v566z m-94 121c0 35 28 63 63 63s62-28 62-63-28-62-62-62-63 28-63 62z m625-375c0 26 3 13-166 283-24 40-81 40-106 0-169-271-165-258-165-283h0c0-108 102-187 218-187 115 0 219 79 219 187h0z m-219 250l157-250h-313l156 250z m-135-312h271c-61-84-211-83-271 0z m-333 62h0c0 26 3 13-166 283-25 40-82 40-106 0-170-271-166-258-166-283h0c0-109 104-187 219-187 115 0 219 78 219 187z m-219 250l156-250h-312l156 250z m-135-312h270c-60-84-210-83-270 0z" horiz-adv-x="1125" />

<glyph glyph-name="ban" unicode="&#xe94b;" d="M500 828c-267 0-484-217-484-484s217-485 484-485 484 217 484 485-216 484-484 484z m-298-783c-158 158-165 409-22 574l595-595c-165-143-416-136-573 21z m618 23l-595 595c165 143 416 137 573-21 158-157 165-408 22-574z" horiz-adv-x="1000" />

<glyph glyph-name="band-aid" unicode="&#xe94c;" d="M1094 656h-938c-86 0-156-70-156-156v-312c0-87 70-157 156-157h938c86 0 156 70 156 157v312c0 86-70 156-156 156z m-781-562h-157c-51 0-93 42-93 94v312c0 52 42 94 93 94h157v-500z m562 0h-500v500h500v-500z m313 94c0-52-42-94-94-94h-156v500h156c52 0 94-42 94-94v-312z m-657 210c22 0 39 18 39 40s-17 39-39 39-39-18-39-39 18-40 39-40z m188 0c21 0 39 18 39 40s-18 39-39 39-39-18-39-39 17-40 39-40z m-188-187c22 0 39 18 39 39s-17 39-39 39-39-17-39-39 18-39 39-39z m188 0c21 0 39 18 39 39s-18 39-39 39-39-17-39-39 17-39 39-39z" horiz-adv-x="1250" />

<glyph glyph-name="barcode" unicode="&#xe94d;" d="M0-31v750h35v-750h-35z m53 0v750h17v-750h-17z m53 0v750h17v-750h-17z m87 0v750h17v-750h-17z m70 0v750h35v-750h-35z m88 0v750h17v-750h-17z m35 0v750h18v-750h-18z m35 0v750h18v-750h-18z m70 0v750h35v-750h-35z m88 0v750h35v-750h-35z m70 0v750h35v-750h-35z m70 0v750h36v-750h-36z m53 0v750h35v-750h-35z m88 0v750h52v-750h-52z m70 0v750h18v-750h-18z m35 0v750h35v-750h-35z" horiz-adv-x="1000" />

<glyph glyph-name="barcode-alt" unicode="&#xe94e;" d="M547 656h-31c-9 0-16-7-16-15v-594c0-9 7-16 16-16h31c9 0 16 7 16 16v594c0 8-7 15-16 15z m-125 0h-31c-9 0-16-7-16-15v-594c0-9 7-16 16-16h31c9 0 16 7 16 16v594c0 8-7 15-16 15z m734 188h-1062c-52 0-94-42-94-94v-813c0-51 42-93 94-93h1062c52 0 94 42 94 93v813c0 52-42 94-94 94z m32-907c0-17-15-31-32-31h-1062c-17 0-31 14-31 31v813c0 17 14 31 31 31h1062c17 0 32-14 32-31v-813z m-891 719h-94c-8 0-15-7-15-15v-594c0-9 7-16 15-16h94c9 0 16 7 16 16v594c0 8-7 15-16 15z m750 0h-94c-8 0-15-7-15-15v-594c0-9 7-16 15-16h94c9 0 16 7 16 16v594c0 8-7 15-16 15z m-250 0h-94c-8 0-15-7-15-15v-594c0-9 7-16 15-16h94c9 0 16 7 16 16v594c0 8-7 15-16 15z" horiz-adv-x="1250" />

<glyph glyph-name="barcode-read" unicode="&#xe94f;" d="M297 844h-281c-9 0-16-7-16-16v-297c0-8 7-15 16-15h31c9 0 16 7 16 15v250h234c9 0 16 7 16 16v31c0 9-7 16-16 16z m0-938h-234v250c0 9-7 16-16 16h-31c-9 0-16-7-16-16v-297c0-8 7-15 16-15h281c9 0 16 7 16 15v32c0 8-7 15-16 15z m937 938h-281c-8 0-15-7-15-16v-31c0-9 7-16 15-16h235v-250c0-8 7-15 15-15h31c9 0 16 7 16 15v297c0 9-7 16-16 16z m0-672h-31c-8 0-15-7-15-16v-250h-235c-8 0-15-7-15-15v-32c0-8 7-15 15-15h281c9 0 16 7 16 15v297c0 9-7 16-16 16z m-937 484h-94c-8 0-15-7-15-15v-594c0-9 7-16 15-16h94c9 0 16 7 16 16v594c0 8-7 15-16 15z m656-625h94c9 0 16 7 16 16v594c0 8-7 15-16 15h-94c-8 0-15-7-15-15v-594c0-9 7-16 15-16z m-156 625h-94c-8 0-15-7-15-15v-594c0-9 7-16 15-16h94c9 0 16 7 16 16v594c0 8-7 15-16 15z m-375 0h-31c-9 0-16-7-16-15v-594c0-9 7-16 16-16h31c9 0 16 7 16 16v594c0 8-7 15-16 15z m125 0h-31c-9 0-16-7-16-15v-594c0-9 7-16 16-16h31c9 0 16 7 16 16v594c0 8-7 15-16 15z" horiz-adv-x="1250" />

<glyph glyph-name="barcode-scan" unicode="&#xe950;" d="M313 828c0 9-7 16-16 16h-156c-9 0-16-7-16-16v-297h188v297z m250 0c0 9-7 16-16 16h-94c-8 0-15-7-15-16v-297h125v297z m187 0c0 9-7 16-16 16h-31c-8 0-15-7-15-16v-297h62v297z m188 0c0 9-7 16-16 16h-94c-8 0-15-7-15-16v-297h125v297z m187 0c0 9-7 16-16 16h-93c-9 0-16-7-16-16v-297h125v297z m-312-969c0-8 7-15 15-15h94c9 0 16 7 16 15v297h-125v-297z m-125 0c0-8 7-15 15-15h31c9 0 16 7 16 15v297h-62v-297z m-563 0c0-8 7-15 16-15h156c9 0 16 7 16 15v297h-188v-297z m313 0c0-8 7-15 15-15h94c9 0 16 7 16 15v297h-125v-297z m562 0c0-8 7-15 16-15h93c9 0 16 7 16 15v297h-125v-297z m234 516h-1218c-9 0-16-7-16-16v-31c0-8 7-15 16-15h1218c9 0 16 7 16 15v31c0 9-7 16-16 16z" horiz-adv-x="1250" />

<glyph glyph-name="bars" unicode="&#xe951;" d="M863 621h-851c-7 0-12 5-12 12v0 47c0 6 5 11 12 11v0h851c7 0 12-5 12-11v0-47c0-7-5-12-12-12v0z m0-312h-851c-7 0-12 5-12 11v0 47c0 7 5 12 12 12v0h851c7 0 12-5 12-12v0-47c0-6-5-11-12-11v0z m0-313h-851c-7 0-12 5-12 12v0 47c0 6 5 11 12 11v0h851c7 0 12-5 12-11v0-47c0-7-5-12-12-12v0z" horiz-adv-x="875" />

<glyph glyph-name="bath" unicode="&#xe956;" d="M977 344h-852v297c0 43 35 78 78 78 33 0 61-21 73-49-36-47-34-113 4-158-7-7-7-19 0-27l18-17c7-7 19-7 27 0l176 176c7 8 7 20 0 27l-17 17c-8 8-20 8-27 0-37 32-88 39-131 21-24 43-70 72-123 72-77 0-140-63-140-140v-297h-40c-12 0-23-11-23-24v-15c0-13 11-24 23-24h40v-125c0-55 24-105 62-139v-87c0-13 11-24 23-24h16c13 0 24 11 24 24v49c18-6 40-10 62-10 0 0 0 0 0 0h500c0 0 0 0 0 0 23 0 44 4 64 11l-1-1v-49c0-13 10-24 23-24h16c13 0 23 11 23 24v87c38 34 63 84 63 139v125h39c13 0 23 11 23 24v15c0 13-10 24-23 24z m-646 294c22 22 57 24 81 6l-87-87c-18 24-16 59 6 81z m544-482c0-69-56-125-125-125h-500c-69 0-125 56-125 125v125h750v-125z" horiz-adv-x="1000" />

<glyph glyph-name="bed" unicode="&#xe95e;" d="M63 695v-476h1039c13 0 23-11 23-24v-226h-62v187h-1000v-187h-63v726c0 13 11 24 23 24h16c13 0 24-11 24-24z m62-226c0 103 84 187 188 187s187-84 187-187-84-188-187-188-188 84-188 188z m63 0c0-69 56-125 125-125s125 56 125 125-57 125-125 125-125-56-125-125z m937-63v-125h-562v266c0 26 21 47 46 47h329c103 0 187-84 187-188z m-62 0c0 69-57 125-125 125h-313v-187h438v62z" horiz-adv-x="1125" />

<glyph glyph-name="beer" unicode="&#xe95f;" d="M750 656h-62v32c0 51-42 93-94 93h-500c-52 0-94-42-94-93v-688c0-52 42-94 94-94h500c52 0 94 42 94 94v43l118 59c43 22 69 65 69 112v317c0 69-56 125-125 125z m-125-656c0-17-14-31-31-31h-500c-17 0-31 14-31 31v688c0 17 14 31 31 31h500c17 0 31-14 31-31v-688z m188 214c0-24-14-45-35-56l-90-45v481h62c35 0 63-28 63-63v-317z m-438 349v-438c0-17-14-31-31-31s-31 14-31 31v438c0 17 14 31 31 31s31-14 31-31z m-125 0v-438c0-17-14-31-31-31s-31 14-31 31v438c0 17 14 31 31 31s31-14 31-31z m250 0v-438c0-17-14-31-31-31s-31 14-31 31v438c0 17 14 31 31 31s31-14 31-31z" horiz-adv-x="875" />

<glyph glyph-name="bell" unicode="&#xe960;" d="M847 129c-43 43-97 97-97 309 0 155-113 283-261 308 7 10 11 22 11 35 0 0 0 0 0 0v0c0 35-28 63-62 63s-63-28-63-63c0-13 4-25 11-35-148-25-261-153-261-308 0-212-54-266-97-309-59-59-18-160 66-160h219c0-69 56-125 125-125s125 56 125 125h218c83 0 125 101 66 160z m-409-223c-35 0-63 28-63 63h125c0-35-28-63-62-63z m343 125h-687c-28 0-42 34-22 54 68 68 116 144 116 353 0 138 111 250 250 250 138 0 250-112 250-250 0-208 47-285 115-353 20-20 6-54-22-54z" horiz-adv-x="875" />

<glyph glyph-name="bell-slash" unicode="&#xe961;" d="M219 31c-28 0-42 34-22 54 63 63 109 134 115 314l-62 54c0-4 0-10 0-15v0c0-212-54-266-97-309-59-59-18-160 66-160h219c0-69 56-125 125-125s125 56 125 125h109l-70 62h-508z m344-125c-35 0-63 28-63 63h125c0-35-28-63-62-63z m554-9l-132 116c22 34 21 82-13 116-43 43-97 97-97 309 0 155-113 283-261 308 7 10 11 22 11 35 0 0 0 0 0 0v0c0 35-28 63-62 63s-63-28-63-63c0-13 4-25 11-35-86-14-160-64-207-133l-254 225c-10 8-25 8-34-2l-10-12c-9-10-8-24 2-33l1067-941c10-9 25-8 34 2l10 11c9 10 8 25-2 34z m-554 791c138 0 250-112 250-250 0-208 47-285 115-353 9-9 11-19 9-29l-585 516c44 69 122 116 211 116z" horiz-adv-x="1125" />

<glyph glyph-name="bicycle" unicode="&#xe962;" d="M1001 469c-39 0-75-9-107-24l-164 259c-6 9-16 15-27 15 0 0 0 0 0 0h-133c-13 0-23-11-23-24v-15c0-13 10-24 23-24h116l79-125h-265v39c0 13-10 24-23 24h-164c-18 0-32-14-32-31s14-32 32-32h109l-62-88c-34 17-71 26-111 26-138-1-249-112-249-250 0-138 112-250 250-250 117 0 214 79 242 187h102c10 0 20 6 25 14l0 0 197 281 25-39c-56-46-91-115-91-193 0-137 111-249 248-250 137-2 250 109 252 246 2 138-112 253-249 254z m-751-438c-103 0-187 84-187 188s84 187 187 187c26 0 51-5 73-15l-130-186c-14-20 1-49 26-49h208c-26-72-95-125-177-125z m188 188h-159l97 139c38-35 62-84 62-139z m140 0h-78c0 76-34 144-88 190l42 60h299l-175-250z m415-188c-98 4-177 84-180 182-2 57 22 110 62 145l103-163c7-10 21-14 32-7l13 9c11 7 15 21 8 32l-103 163c22 9 46 14 72 14 103 0 188-84 188-187 0-106-89-192-195-188z" horiz-adv-x="1250" />

<glyph glyph-name="binoculars" unicode="&#xe963;" d="M875 609c0 26-21 47-47 47h-15v78c0 26-21 47-47 47h-157c-25 0-46-21-46-47v-78h-125v78c0 26-21 47-47 47h-157c-25 0-46-21-46-47v-78h-16c-26 0-47-21-47-47 0-203-125-234-125-515v-94c0-52 42-94 94-94h187c52 0 94 42 94 94v258c0 13 11 23 23 23h204c13 0 23-10 23-23v-258c0-52 42-94 94-94h187c52 0 94 42 94 94v94c0 281-125 312-125 515z m-562-609c0-17-14-31-32-31h-187c-17 0-31 14-31 31v31h250v-31z m62 341c-36-11-62-44-62-83v-164h-250c0 62 6 116 20 165 12 43 27 76 44 112 28 61 57 125 60 223h188v-253z m0 315h-125v63h125v-63z m188-312h-125v250h125v-250z m62 375h125v-63h-125v63z m0-378v253h188c3-98 32-162 60-223 17-36 32-69 44-112 14-49 21-103 21-165h-250v164c0 39-27 72-63 83z m281-372h-187c-17 0-31 14-31 31v31h250v-31c0-17-14-31-32-31z" horiz-adv-x="1000" />

<glyph glyph-name="birthday-cake" unicode="&#xe964;" d="M188 656c-35 0-63 28-63 63 0 60 63 45 63 125 23 0 62-58 62-110s-28-78-62-78z m250 0c-35 0-63 28-63 63 0 60 63 45 63 125 23 0 62-58 62-110s-28-78-62-78z m250 0c-35 0-63 28-63 63 0 60 63 45 63 125 23 0 62-58 62-110s-28-78-62-78z m93-312h-62v281h-63v-281h-187v281h-63v-281h-187v281h-63v-281h-62c-52 0-94-42-94-94v-406h875v406c0 52-42 94-94 94z m32-438h-750v141c31 19 46 47 83 47 55 0 61-63 146-63 84 0 92 63 146 63 55 0 60-63 146-63 84 0 91 63 146 63 36 0 51-28 83-47v-141z m0 220c-19 15-42 30-83 30-85 0-92-62-146-62-55 0-62 62-146 62-84 0-93-62-146-62-55 0-61 62-146 62-42 0-65-15-83-30v124c0 17 14 31 31 31h687c18 0 32-14 32-31v-124z" horiz-adv-x="875" />

<glyph glyph-name="blanket" unicode="&#xe965;" d="M872 94h-669c-8 0-15-7-15-16v-31c0-9 7-16 15-16h672c69 0 125 56 125 125v532c0 86-70 156-156 156h-688c-86 0-156-70-156-156v-625c0-121 98-219 219-219h765c9 0 16 7 16 15v32c0 8-7 15-16 15h-758c-82 0-155 60-163 141-9 93 64 172 156 172h656c38 0 68-34 62-73-5-31-34-52-65-52z m3 187h-656c-62 0-117-25-156-66v473c0 51 42 93 93 93h688c52 0 94-42 94-93v-424c-19 11-40 17-63 17z" horiz-adv-x="1000" />

<glyph glyph-name="blind" unicode="&#xe966;" d="M404-113c7-16-1-34-17-41-16-6-34 1-41 17l-131 322 31 91 158-389z m-203 719c-1 2-2 3-2 5 0 4 4 8 8 8 3 0 5-2 6-4l0 0 221-316c7-11 22-13 33-6 10 8 13 22 5 33l-234 336c-4 6-11 10-19 10 0 0 0 0 0 0h0v0l-63 0c-6 0-13-3-17-8l-139-155v-196c0-13 11-24 23-24s24 11 24 24v178l94 105v-388l-108-323c-6-17 3-34 20-40 16-5 34 4 39 20l142 427v266l-33 48z m548-750l-269 428c-4-3-8-6-13-8l0 0 269-429c1-2 3-3 6-3 5 0 8 3 8 7 0 2 0 3-1 5l0 0z m-561 988c-44 0-79-35-79-78s35-78 79-78 78 35 78 78-35 78-78 78z" horiz-adv-x="750" />

<glyph glyph-name="bold" unicode="&#xe967;" d="M487 371c66 37 104 104 104 187 0 83-38 158-97 190-40 23-89 33-150 33h-321c-12 0-23-10-23-23v-16c0-13 11-23 23-23h39v-750h-39c-12 0-23-11-23-24v-15c0-13 11-24 23-24h332c39 0 89 2 132 20 84 35 138 124 138 227 0 103-55 188-138 218z m-358 347h215c49 0 85-8 112-24 42-27 66-76 66-135 0-97-63-162-157-162h-236v321z m327-733c-25-11-58-16-101-16h-226v366h243c110 0 184-74 184-184 0-79-37-141-100-166z" horiz-adv-x="625" />

<glyph glyph-name="bolt" unicode="&#xe968;" d="M363 781c21 0 36-19 31-39l-65-242h202c24 0 39-26 27-46l-296-532c-6-9-16-16-28-16h0c-19 0-35 19-30 39l97 368h-207c-19 0-33 15-31 34l38 406c2 16 15 28 31 28 0 0 0 0 0 0h231z m0 63h-231c-48 0-88-37-93-85l-39-406c-5-55 39-103 94-103h126l-76-289c-16-59 29-117 90-117 33 0 65 17 82 48l297 531c35 62-10 140-82 140h-121l44 163c16 59-29 118-91 118z" horiz-adv-x="625" />

<glyph glyph-name="bomb" unicode="&#xe969;" d="M822 710l-110-110-74 75c-24 24-64 24-89 0l-33-34c-35 10-72 15-110 15-218 0-400-175-406-394-6-230 178-418 406-418 225 0 407 184 407 406 0 38-6 75-15 110l33 33c24 25 24 64 0 89l-75 74 110 110-44 44z m-95-332c12-40 23-73 23-128 0-188-153-344-344-344-47 0-93 10-136 28-127 55-212 183-207 326 5 185 158 334 343 334 55 0 88-12 129-23l59 59 193-192s-4-4-60-60z m273 325c0-13-10-23-23-23h-47c-13 0-24 10-24 23s11 24 24 24h47c13 0 23-11 23-24z m-117 117v-47c0-12-11-23-24-23s-23 11-23 23v47c0 13 11 24 23 24s24-11 24-24z m10-84c-10 10-10 24 0 34l33 33c9 9 24 9 33 0s9-24 0-33l-33-34c-9-9-24-9-33 0z m-133 33c-9 10-9 24 0 34s24 9 33 0l33-34c10-9 10-24 0-33s-24-9-33 0l-33 33z m199-132c9-9 9-24 0-33s-24-9-33 0l-34 33c-9 9-9 24 0 33s24 9 34 0l33-33z m-584-168c0-17-14-31-31-31-69 0-125-57-125-125 0-18-14-32-31-32s-32 14-32 32c0 103 84 187 188 187 17 0 31-14 31-31z" horiz-adv-x="1000" />

<glyph glyph-name="book" unicode="&#xe96a;" d="M695 531h-328c-13 0-23 11-23 24v15c0 13 10 24 23 24h328c13 0 24-11 24-24v-15c0-13-11-24-24-24z m24-101v15c0 13-11 24-24 24h-328c-13 0-23-11-23-24v-15c0-13 10-24 23-24h328c13 0 24 11 24 24z m126-524h7c13 0 23-10 23-23v-16c0-13-10-23-23-23h-696c-86 0-156 70-156 156v688c0 86 70 156 156 156h672c26 0 47-21 47-47v-719c0-19-12-36-29-43-7-32-9-89-1-129z m-595 188h563v687h-563v-687z m-187-31c26 19 58 31 93 31h32v687h-32c-51 0-93-42-93-93v-625z m727-157c-6 40-6 88 0 125h-634c-125 0-125-125 0-125h634z" horiz-adv-x="875" />

<glyph glyph-name="book-heart" unicode="&#xe96b;" d="M449 242c11-10 28-10 39 0l166 168c48 48 45 129-9 174-27 22-93 55-176-29-83 84-149 51-176 29-54-45-57-126-9-174l165-168z m-116 294c26 22 61 6 75-8l61-62 61 62c14 14 48 30 75 8 28-24 24-62 4-82l-140-142-140 142c-21 20-24 58 4 82z m542-458v719c0 26-21 47-47 47h-672c-86 0-156-70-156-156v-688c0-86 70-156 156-156h696c13 0 23 10 23 23v16c0 13-10 23-23 23h-7c-8 40-6 97 1 129 17 7 29 24 29 43z m-85-172h-634c-125 0-125 125 0 125h634c-6-37-6-85 0-125z m23 188h-657c-35 0-67-12-93-31v625c0 51 42 93 93 93h657v-687z" horiz-adv-x="875" />

<glyph glyph-name="bookmark" unicode="&#xe96c;" d="M656 844h-562c-52 0-94-42-94-94v-906l375 219 375-219v906c0 52-42 94-94 94z m32-891l-313 182-312-182v797c0 17 14 31 31 31h562c18 0 32-14 32-31v-797z" horiz-adv-x="750" />

<glyph glyph-name="box" unicode="&#xe96f;" d="M995 483l-99 297c-12 38-48 64-89 64h-614c-41 0-77-26-89-64l-99-297c-3-9-5-19-5-29v-517c0-51 42-93 94-93h812c52 0 94 42 94 93v517c0 10-2 20-5 29z m-932-29c0 3 0 6 1 10l99 296c4 13 16 21 30 21h276v-328l-406 1z m875-517c0-17-15-31-32-31h-812c-17 0-31 14-31 31v454h875v-454z m0 516h-407v328h276c14 0 26-8 30-21l99-296c1-4 2-7 2-10v-1z" horiz-adv-x="1000" />

<glyph glyph-name="box-alt" unicode="&#xe970;" d="M875 500c0 21-5 41-15 59l-96 180c-8 25-32 42-59 42h-535c-27 0-51-17-59-42l-96-180c-10-18-15-38-15-59 0-118 0-531 0-531 0-35 28-63 63-63h750c34 0 62 28 62 63 0 0 0 413 0 531z m-170 219l99-188h-245l-24 188h170z m-330-250h125v-125h-125v125z m98 250l23-188h-117l24 188h70z m-303 0h170l-24-188h-245l99 188z m-107-750s0 354 0 500h250v-125c0-35 27-63 62-63h125c35 0 63 28 63 63v125h249c0-146 1-500 1-500h-750z" horiz-adv-x="875" />

<glyph glyph-name="box-check" unicode="&#xe971;" d="M962 583l-66 197c-12 38-48 64-89 64h-614c-41 0-77-26-89-64l-99-297c-3-9-5-19-5-29v-517c0-51 42-93 94-93h781c207 0 375 168 375 375 0 177-123 325-288 364z m-431 198h276c14 0 26-8 30-21l56-167c-6 0-12 1-18 1-111 0-210-48-279-125h-65v312z m-368-21c4 13 16 21 30 21h276v-312h-403l97 291z m-69-854c-17 0-31 14-31 31v469h488c-32-55-51-119-51-187 0-131 67-246 168-313h-574z m781 0c-172 0-312 141-312 313s140 312 312 312 313-140 313-312-141-313-313-313z m126 433c-6 6-16 6-22 0l-136-135-59 60c-6 6-16 6-22 0l-37-37c-6-6-6-15 0-21l106-108c7-6 16-6 22 0l184 183c6 6 6 16 0 22l-36 36z" horiz-adv-x="1250" />

<glyph glyph-name="boxes" unicode="&#xe972;" d="M1219 406h-281v407c0 17-15 31-32 31h-562c-17 0-31-14-31-31v-407h-282c-17 0-31-14-31-31v-500c0-17 14-31 31-31h1188c17 0 31 14 31 31v500c0 17-14 31-31 31z m-344-62h125v-122l-62 21-63-21v122z m-187 437v-121l-63 21-62-21v121h125z m-313 0h125v-208l125 42 125-42v208h125v-375h-500v375z m0-437v-122l-62 21-63-21v122h125z m-312 0h125v-209l125 42 125-42v209h156v-438h-531v438z m1125-438h-532v438h157v-209l125 42 125-42v209h125v-438z" horiz-adv-x="1250" />

<glyph glyph-name="box-fragile" unicode="&#xe974;" d="M766 781h-657c-60 0-109-49-109-109v-656c0-61 49-110 109-110h657c60 0 109 49 109 110v656c0 60-49 109-109 109z m47-765c0-26-22-47-47-47h-657c-25 0-46 21-46 47v656c0 26 21 47 46 47h657c25 0 47-21 47-47v-656z m-219 640h-313c-34 0-62-28-62-62v-156c0-111 81-201 187-216v-128h-78c-8 0-15-7-15-16v-31c0-9 7-16 15-16h219c9 0 16 7 16 16v31c0 9-7 16-16 16h-78v128c106 15 187 105 187 216v156c0 34-28 62-62 62z m0-218c0-87-70-157-156-157s-157 70-157 157v156h135c4-13 9-26 14-39-15-16-71-75-71-75s93-68 131-86c5-2 11-2 16 2 8 5 9 15 4 22-17 24-58 66-58 66l56 55s-18 43-23 55h109v-156z" horiz-adv-x="875" />

<glyph glyph-name="box-full" unicode="&#xe975;" d="M1247 375l-101 201c-5 11-16 18-28 18-2 0 8 1-110-14l51 140c12 33-5 69-37 80l-109 40c-32 12-68-5-80-37l-84-230c-5 150-128 271-280 271-147 0-266-113-279-257-58 7-55 7-58 7-11 0-23-7-28-18l-101-201c-9-18 1-39 20-44l102-30v-287c0-29 20-54 47-61l423-106c26-6 48-3 60 0l423 106c28 7 47 32 47 61v287l102 30c19 5 29 26 20 44z m-356 406l109-39-62-171-129-16 82 226z m-815-401l74 149 372-48-117-195-329 94z m518-468l-406 102v269c240-68 224-64 231-64 11 0 21 5 27 15l148 246v-568z m31 619c-187 24-302 39-373 48 8 113 102 202 217 202 121 0 219-98 219-218 0-8-2-16-3-24l-60-8z m438-517l-407-102v568l148-246c6-9 17-15 27-15 7 0-10-4 232 65v-270z m-217 273l-118 194 372 48 74-148-328-94z" horiz-adv-x="1250" />

<glyph glyph-name="box-heart" unicode="&#xe976;" d="M875 500c0 21-5 41-15 59l-96 180c-8 25-32 42-59 42h-535c-27 0-51-17-59-42l-96-180c-10-18-15-38-15-59 0-118 0-531 0-531 0-35 28-63 63-63h750c34 0 62 28 62 63 0 0 0 413 0 531z m-406 219h236l99-188h-335v188z m-299 0h236v-188h-335l99 188z m268-750h-375s0 354 0 500h750c0-146 0-500 0-500h-375z m176 412c-27 22-93 55-176-29-84 84-150 51-177 29-53-45-56-126-8-175l165-167c11-10 28-10 39 0l166 167c47 49 44 130-9 175z m-36-130l-140-142-141 141c-20 21-24 59 4 82 27 23 61 7 75-7l62-62 61 62c14 14 48 30 75 7 28-23 24-61 4-81z" horiz-adv-x="875" />

<glyph glyph-name="boxing-glove" unicode="&#xe977;" d="M493 139l14-28c4-8 1-17-7-21l-55-27 55-28c8-4 11-13 7-21l-14-28c-4-8-13-11-21-7l-97 49-97-49c-8-4-17-1-21 7l-14 28c-4 8-1 17 7 21l55 28-55 27c-8 4-11 13-7 21l14 28c4 8 13 11 21 7l97-48 97 48c8 4 17 1 21-7z m262-27l-67-63v-143c0-34-28-62-63-62h-500c-35 0-62 28-62 62v188l-34 188c-19 117-29 236-29 355 0 114 92 207 206 207h341c112 0 203-93 203-207v-85c73-25 125-90 125-167 0-103-43-200-120-273z m-43 46c65 60 101 141 101 227 0 63-57 115-125 115h-61c-52 0-95-41-96-92-1-48 35-88 81-94 7-2 13-8 13-16v-32c0-9-8-16-17-15-78 8-139 75-139 155 0 22 5 43 13 63h-175c-59 0-116 21-160 60-7 6-8 16-1 23l22 22c6 6 15 6 21 0 33-28 75-43 118-43h224v-1c26 20 59 32 94 32h63v74c0 81-62 145-141 145h-341c-79 0-143-65-143-144 0-292 61-493 62-543h47c9 0 16-7 16-16v-31c0-9-7-16-16-16h-47l0-125h500v125h-47c-8 0-15 7-15 16v31c0 9 7 16 15 16h66l68 64z" horiz-adv-x="875" />

<glyph glyph-name="box-open" unicode="&#xe978;" d="M1184 563l-95 201c-5 11-16 17-27 17-1 0-468-62-468-62s-467 62-468 62c-11 0-22-7-27-17l-96-201c-9-18 1-40 19-45l97-29v-413c0-28 18-53 45-60l401-106c25-7 46-3 57 0l402 106c26 7 45 32 45 60v413l96 29c19 5 28 27 19 45z m-1041 153l353-47-112-195-312 94 71 148z m35-245c229-69 214-65 220-65 10 0 20 6 26 16l140 245v-692l-386 101v395z m831-395l-386-101v692l141-245c6-10 16-16 26-16 6 0-10-4 219 65v-395z m-206 398l-111 195 353 47 70-148-312-94z" horiz-adv-x="1187.5" />

<glyph glyph-name="box-up" unicode="&#xe979;" d="M797 94h-594c-8 0-15-7-15-16v-31c0-9 7-16 15-16h594c9 0 16 7 16 16v31c0 9-7 16-16 16z m78 750h-750c-69 0-125-56-125-125v-750c0-69 56-125 125-125h750c69 0 125 56 125 125v750c0 69-56 125-125 125z m63-875c0-35-29-63-63-63h-750c-34 0-62 28-62 63v750c0 34 28 62 62 62h750c34 0 63-28 63-62v-750z m-726 480l69 87v-302c0-8 7-15 16-15h31c9 0 16 7 16 15v302l69-87c9-11 28-17 44-5 14 11 16 31 5 44l-125 157c-12 14-37 14-49 0l-125-157c-11-13-8-33 5-44s33-8 44 5z m500 196c-12 14-37 14-49 0l-125-157c-11-13-8-33 5-44s33-8 44 5l69 87v-302c0-8 7-15 16-15h31c9 0 16 7 16 15v302l69-87c9-11 28-17 44-5 14 11 16 31 5 44l-125 157z" horiz-adv-x="1000" />

<glyph glyph-name="box-usd" unicode="&#xe97a;" d="M487 237l-81 24c-8 3-14 11-14 21 0 11 8 21 19 21h50c8 0 15-2 22-6 6-4 14-2 19 3l23 21c6 7 6 18-1 24-16 11-35 18-55 20v26c0 8-7 15-16 15h-31c-9 0-16-7-16-15v-26c-42-3-77-39-77-84 0-37 24-70 59-80l81-24c8-3 14-11 14-21 0-12-8-21-19-21h-50c-8 0-15 2-22 6-6 3-14 2-19-3l-23-21c-6-7-6-18 1-24 16-12 36-19 55-20v-26c0-9 7-16 16-16h31c9 0 16 7 16 16v26c43 3 77 38 77 83 0 37-24 70-59 81z m388 263c0 21-5 41-15 59l-96 180c-8 25-32 42-59 42h-535c-27 0-51-17-59-42l-96-180c-10-18-15-38-15-59 0-118 0-531 0-531 0-35 28-63 63-63h750c34 0 62 28 62 63 0 0 0 413 0 531z m-406 219h236l99-188h-335v188z m-299 0h236v-188h-335l99 188z m-107-750s0 354 0 500h750c0-146 0-500 0-500h-750z" horiz-adv-x="875" />

<glyph glyph-name="briefcase" unicode="&#xe97c;" d="M906 656h-218v78c0 26-21 47-47 47h-282c-25 0-46-21-46-47v-78h-219c-52 0-94-42-94-93v-563c0-52 42-94 94-94h812c52 0 94 42 94 94v563c0 51-42 93-94 93z m-531 63h250v-63h-250v63z m563-719c0-17-14-31-32-31h-812c-17 0-31 14-31 31v281h312v-78c0-26 21-47 47-47h156c26 0 47 21 47 47v78h313v-281z m-500 281h125v-62h-125v62z m-375 63v219c0 17 14 31 31 31h812c18 0 32-14 32-31v-219h-875z" horiz-adv-x="1000" />

<glyph glyph-name="briefcase-medical" unicode="&#xe97d;" d="M672 281h-109v110c0 8-7 15-16 15h-94c-8 0-15-7-15-15v-110h-110c-8 0-15-7-15-15v-94c0-9 7-16 15-16h110v-109c0-9 7-16 15-16h94c9 0 16 7 16 16v109h109c9 0 16 7 16 16v94c0 8-7 15-16 15z m234 313h-218v140c0 26-21 47-47 47h-282c-26 0-46-21-46-47v-140h-219c-52 0-94-42-94-94v-563c0-51 42-93 94-93h812c52 0 94 42 94 93v563c0 52-42 94-94 94z m-531 125h250v-125h-250v125z m563-782c0-17-15-31-32-31h-812c-17 0-31 14-31 31v563c0 17 14 31 31 31h812c17 0 32-14 32-31v-563z" horiz-adv-x="1000" />

<glyph glyph-name="browser" unicode="&#xe97e;" d="M906 781h-812c-52 0-94-42-94-93v-688c0-52 42-94 94-94h812c52 0 94 42 94 94v688c0 51-42 93-94 93z m-843-93c0 17 14 31 31 31h94v-125h-125v94z m875-688c0-17-15-31-32-31h-812c-17 0-31 14-31 31v531h875v-531z m0 594h-688v125h656c17 0 32-14 32-31v-94z" horiz-adv-x="1000" />

<glyph glyph-name="bug" unicode="&#xe97f;" d="M1063 313h-125v237l69 69c12 12 12 32 0 44-13 12-32 12-45 0l-69-69h-78c0 138-112 250-250 250-139 0-250-112-250-250h-83l-85 84c-12 13-32 13-44 0-12-12-12-32 0-44l85-84v-237h-125c-18 0-32-14-32-32s14-31 32-31h125v-47c0-71 22-138 59-193l-113-113c-12-12-12-32 0-44 12-12 32-12 44 0l109 108c62-63 149-102 244-102h63c95 0 182 39 244 102l109-108c12-12 32-12 44 0 12 12 12 32 0 44l-113 113c38 55 60 122 60 193v47h125c17 0 31 14 31 31s-14 32-31 32z m-498 468c103 0 187-84 187-187h-375c0 103 84 187 188 187z m29-859v461c0 13-11 23-24 23h-15c-13 0-24-10-24-23v-461c-155 0-281 126-281 281v328h625v-328c0-155-126-281-281-281z" horiz-adv-x="1125" />

<glyph glyph-name="building" unicode="&#xe980;" d="M375 635v-78c0-13-10-24-23-24h-79c-12 0-23 11-23 24v78c0 13 11 23 23 23h79c13 0 23-10 23-23z m227 23h-79c-12 0-23-10-23-23v-78c0-13 11-24 23-24h79c13 0 23 11 23 24v78c0 13-10 23-23 23z m-250-187h-79c-12 0-23-11-23-24v-78c0-13 11-23 23-23h79c13 0 23 10 23 23v78c0 13-10 24-23 24z m250 0h-79c-12 0-23-11-23-24v-78c0-13 11-23 23-23h79c13 0 23 10 23 23v78c0 13-10 24-23 24z m-250-188h-79c-12 0-23-10-23-23v-78c0-13 11-24 23-24h79c13 0 23 11 23 24v78c0 13-10 23-23 23z m250 0h-79c-12 0-23-10-23-23v-78c0-13 11-24 23-24h79c13 0 23 11 23 24v78c0 13-10 23-23 23z m273-400v-39h-875v39c0 13 11 23 23 23h40v891c0 26 21 47 46 47h657c26 0 47-21 47-47v-891h39c13 0 23-10 23-23z m-125 23v875h-625v-875h250v166c0 13 11 24 23 24h79c13 0 23-11 23-24v-166h250z" horiz-adv-x="875" />

<glyph glyph-name="bullhorn" unicode="&#xe981;" d="M1063 469v312c0 35-28 63-63 63-127-110-340-250-594-250h-312c-52 0-94-42-94-94v-187c0-52 42-94 94-94h33c-11-115 29-209 56-296 3-10 8-19 16-26 33-34 80-53 127-53 62 0 119 33 148 93 13 29 3 63-24 80-54 34-62 44-52 61 14 24 10 54-8 74-10 11-3 53 21 67 252-2 463-142 589-250 35 0 63 28 63 62v313c34 0 62 28 62 62s-28 63-62 63z m-646-505c-34-72-124-73-174-23-27 87-64 174-53 278h143c-16-38-14-82 11-110-39-67 15-109 73-145z m-354 349v187c0 17 14 31 31 31h344v-250h-344c-17 0-31 14-31 32z m937-263c-71 57-146 104-222 141-92 45-186 73-278 84v262c92 12 186 40 278 85 76 36 151 84 222 141v-713z" horiz-adv-x="1125" />

<glyph glyph-name="bullseye" unicode="&#xe982;" d="M500 766c232 0 422-188 422-422 0-232-188-422-422-422-232 0-422 188-422 422 0 232 188 422 422 422z m0 62c-267 0-484-217-484-484s217-485 484-485 484 217 484 485-216 484-484 484z m0-250c130 0 234-105 234-234 0-130-104-235-234-235-129 0-234 105-234 235 0 129 104 234 234 234z m0 63c-164 0-297-133-297-297s133-297 297-297 297 133 297 297-133 297-297 297z m0-188c-60 0-109-49-109-109s49-110 109-110 109 49 109 110-49 109-109 109z" horiz-adv-x="1000" />

<glyph glyph-name="burn" unicode="&#xe983;" d="M375 844c-219-198-375-432-375-587 0-243 154-413 375-413s375 170 375 413c0 156-157 390-375 587z m-182-753c0 26 8 120 182 315 174-195 182-289 182-315 0-94-57-164-142-181-13-1-26-4-40-4s-27 3-40 4c-85 17-142 87-142 181z m414-77c8 24 12 50 12 77 0 158-220 382-244 409-25-28-244-251-244-409 0-27 5-53 12-77-51 61-80 144-80 243 0 177 239 421 312 492 73-70 313-315 313-492 0-99-30-182-81-243z" horiz-adv-x="750" />

<glyph glyph-name="bus" unicode="&#xe984;" d="M313 156c0-34-28-62-63-62s-62 28-62 62 28 63 62 63 63-28 63-63z m437 63c-34 0-62-28-62-63s28-62 62-62 63 28 63 62-28 63-63 63z m250 328v-156c0-26-21-47-47-47h-15v-281c0-41-27-76-63-89v-52c0-43-35-78-78-78h-94c-43 0-78 35-78 78v47h-250v-47c0-43-35-78-78-78h-94c-43 0-78 35-78 78v52c-36 13-62 48-62 89v281h-16c-26 0-47 21-47 47v156c0 26 21 47 47 47h16v53c0 155 280 197 437 197 158 0 438-42 438-197v-53h15c26 0 47-21 47-47z m-875-203h750v250h-750v-250z m1 312h748c-13 70-175 125-374 125s-361-55-374-125z m187-687h-125v-47c0-9 7-16 15-16h94c9 0 16 7 16 16v47z m500-47v47h-125v-47c0-9 7-16 15-16h94c9 0 16 7 16 16z m62 141v218h-750v-218c0-18 14-32 31-32h688c17 0 31 14 31 32z" horiz-adv-x="1000" />

<glyph glyph-name="calculator" unicode="&#xe985;" d="M656 844h-562c-52 0-94-42-94-94v-813c0-51 42-93 94-93h562c52 0 94 42 94 93v813c0 52-42 94-94 94z m-562-63h562c18 0 32-14 32-31v-156h-625v156c0 17 14 31 31 31z m562-875h-562c-17 0-31 14-31 31v594h625v-594c0-17-14-31-32-31z m-406 539v-78c0-13-10-23-23-23h-79c-12 0-23 10-23 23v78c0 13 11 24 23 24h79c13 0 23-11 23-24z m188 0v-78c0-13-11-23-24-23h-78c-13 0-23 10-23 23v78c0 13 10 24 23 24h78c13 0 24-11 24-24z m187 0v-78c0-13-10-23-23-23h-79c-12 0-23 10-23 23v78c0 13 11 24 23 24h79c13 0 23-11 23-24z m-375-187v-78c0-13-10-24-23-24h-79c-12 0-23 11-23 24v78c0 13 11 23 23 23h79c13 0 23-10 23-23z m188 0v-78c0-13-11-24-24-24h-78c-13 0-23 11-23 24v78c0 13 10 23 23 23h78c13 0 24-10 24-23z m187 0v-266c0-13-10-23-23-23h-79c-12 0-23 10-23 23v266c0 13 11 23 23 23h79c13 0 23-10 23-23z m-375-188v-78c0-13-10-23-23-23h-79c-12 0-23 10-23 23v78c0 13 11 24 23 24h79c13 0 23-11 23-24z m188 0v-78c0-13-11-23-24-23h-78c-13 0-23 10-23 23v78c0 13 10 24 23 24h78c13 0 24-11 24-24z" horiz-adv-x="750" />

<glyph glyph-name="calendar" unicode="&#xe986;" d="M781 719h-93v101c0 13-11 24-24 24h-16c-12 0-23-11-23-24v-101h-375v101c0 13-10 24-23 24h-16c-13 0-23-11-23-24v-101h-94c-52 0-94-42-94-94v-688c0-51 42-93 94-93h687c52 0 94 42 94 93v688c0 52-42 94-94 94z m-687-63h687c18 0 32-14 32-31v-94h-750v94c0 17 14 31 31 31z m687-750h-687c-17 0-31 14-31 31v532h750v-532c0-17-14-31-32-31z" horiz-adv-x="875" />

<glyph glyph-name="calendar-alt" unicode="&#xe987;" d="M781 719h-93v101c0 13-11 24-24 24h-16c-12 0-23-11-23-24v-101h-375v101c0 13-10 24-23 24h-16c-13 0-23-11-23-24v-101h-94c-52 0-94-42-94-94v-688c0-51 42-93 94-93h687c52 0 94 42 94 93v688c0 52-42 94-94 94z m-687-63h687c17 0 32-14 32-31v-94h-750v94c0 17 14 31 31 31z m687-750h-687c-17 0-31 14-31 31v532h750v-532c0-17-15-31-32-31z m-492 313h-78c-13 0-23 10-23 23v78c0 13 10 24 23 24h78c13 0 24-11 24-24v-78c0-13-11-23-24-23z m188 0h-79c-12 0-23 10-23 23v78c0 13 11 24 23 24h79c13 0 23-11 23-24v-78c0-13-10-23-23-23z m187 0h-78c-13 0-23 10-23 23v78c0 13 10 24 23 24h78c13 0 24-11 24-24v-78c0-13-11-23-24-23z m-187-188h-79c-12 0-23 11-23 24v78c0 13 11 23 23 23h79c13 0 23-10 23-23v-78c0-13-10-24-23-24z m-188 0h-78c-13 0-23 11-23 24v78c0 13 10 23 23 23h78c13 0 24-10 24-23v-78c0-13-11-24-24-24z m375 0h-78c-13 0-23 11-23 24v78c0 13 10 23 23 23h78c13 0 24-10 24-23v-78c0-13-11-24-24-24z" horiz-adv-x="875" />

<glyph glyph-name="calendar-check" unicode="&#xe988;" d="M781 719h-93v101c0 13-11 24-24 24h-16c-12 0-23-11-23-24v-101h-375v101c0 13-10 24-23 24h-16c-13 0-23-11-23-24v-101h-94c-52 0-94-42-94-94v-688c0-51 42-93 94-93h687c52 0 94 42 94 93v688c0 52-42 94-94 94z m-687-63h687c18 0 32-14 32-31v-94h-750v94c0 17 14 31 31 31z m687-750h-687c-17 0-31 14-31 31v532h750v-532c0-17-14-31-32-31z m-130 381l-263-261c-9-9-24-9-33 0l-131 132c-10 9-10 24 0 33l16 17c9 9 24 9 33 0l99-99 230 228c9 9 24 9 33 0l17-17c9-9 9-24-1-33z" horiz-adv-x="875" />

<glyph glyph-name="calendar-edit" unicode="&#xe989;" d="M781 719h-93v101c0 13-11 24-24 24h-16c-12 0-23-11-23-24v-101h-375v101c0 13-10 24-23 24h-16c-13 0-23-11-23-24v-101h-94c-52 0-94-42-94-94v-688c0-51 42-93 94-93h687c52 0 94 42 94 93v688c0 52-42 94-94 94z m-687-63h687c17 0 32-14 32-31v-94h-750v94c0 17 14 31 31 31z m687-750h-687c-17 0-31 14-31 31v532h750v-532c0-17-15-31-32-31z m-282 411l68-68c4-4 4-10 0-14l-256-256-69-10c-13-2-25 9-23 23l10 69 256 256c4 4 11 4 14 0z m147-3l-37-37c-4-4-11-4-15 0l-67 67c-4 4-4 11 0 15l37 37c14 14 35 14 49 0l33-33c14-14 14-35 0-49z" horiz-adv-x="875" />

<glyph glyph-name="calendar-exclamation" unicode="&#xe98a;" d="M781 719h-93v101c0 13-11 24-24 24h-16c-12 0-23-11-23-24v-101h-375v101c0 13-10 24-23 24h-16c-13 0-23-11-23-24v-101h-94c-52 0-94-42-94-94v-688c0-51 42-93 94-93h687c52 0 94 42 94 93v688c0 52-42 94-94 94z m-687-63h687c17 0 32-14 32-31v-94h-750v94c0 17 14 31 31 31z m687-750h-687c-17 0-31 14-31 31v532h750v-532c0-17-15-31-32-31z m-366 500h45c13 0 24-11 23-25l-13-234c-1-12-11-22-23-22h-19c-12 0-22 10-23 22l-13 234c-1 14 10 25 23 25z m77-375c0-30-24-54-54-54s-55 24-55 54 24 55 55 55 54-24 54-55z" horiz-adv-x="875" />

<glyph glyph-name="calendar-minus" unicode="&#xe98b;" d="M781 719h-93v101c0 13-11 24-24 24h-16c-12 0-23-11-23-24v-101h-375v101c0 13-10 24-23 24h-16c-13 0-23-11-23-24v-101h-94c-52 0-94-42-94-94v-688c0-51 42-93 94-93h687c52 0 94 42 94 93v688c0 52-42 94-94 94z m-687-63h687c17 0 32-14 32-31v-94h-750v94c0 17 14 31 31 31z m687-750h-687c-17 0-31 14-31 31v532h750v-532c0-17-15-31-32-31z m-179 250h-329c-12 0-23 11-23 24v15c0 13 11 24 23 24h329c13 0 23-11 23-24v-15c0-13-10-24-23-24z" horiz-adv-x="875" />

<glyph glyph-name="calendar-plus" unicode="&#xe98c;" d="M625 195v-15c0-13-10-24-23-24h-133v-133c0-12-11-23-24-23h-15c-13 0-24 11-24 23v133h-133c-12 0-23 11-23 24v15c0 13 11 24 23 24h133v133c0 13 11 23 24 23h15c13 0 24-10 24-23v-133h133c13 0 23-11 23-24z m250 430v-688c0-51-42-93-94-93h-687c-52 0-94 42-94 93v688c0 52 42 94 94 94h94v101c0 13 10 24 23 24h16c13 0 23-11 23-24v-101h375v101c0 13 11 24 23 24h16c13 0 24-11 24-24v-101h93c52 0 94-42 94-94z m-812 0v-94h750v94c0 17-15 31-32 31h-687c-17 0-31-14-31-31z m750-688v532h-750v-532c0-17 14-31 31-31h687c17 0 32 14 32 31z" horiz-adv-x="875" />

<glyph glyph-name="calendar-times" unicode="&#xe98d;" d="M781 719h-93v101c0 13-11 24-24 24h-16c-12 0-23-11-23-24v-101h-375v101c0 13-10 24-23 24h-16c-13 0-23-11-23-24v-101h-94c-52 0-94-42-94-94v-688c0-51 42-93 94-93h687c52 0 94 42 94 93v688c0 52-42 94-94 94z m-687-63h687c17 0 32-14 32-31v-94h-750v94c0 17 14 31 31 31z m687-750h-687c-17 0-31 14-31 31v532h750v-532c0-17-15-31-32-31z m-205 188c9-10 9-24 0-34l-11-11c-10-9-25-9-34 0l-93 94-94-94c-10-9-24-9-34 0l-11 12c-9 9-9 24 0 33l94 94-94 94c-9 9-9 24 0 33l11 11c10 9 24 9 34 0l94-94 93 94c10 9 25 9 34 0l11-11c9-9 9-24 0-33l-94-94 94-94z" horiz-adv-x="875" />

<glyph glyph-name="camera-alt" unicode="&#xe98f;" d="M500 47c-129 0-234 105-234 234s105 235 234 235 234-105 234-235-105-234-234-234z m0 406c-95 0-172-77-172-172s77-172 172-172 172 78 172 172-77 172-172 172z m-62-172c0 35 28 63 62 63 17 0 31 14 31 31s-14 31-31 31c-69 0-125-56-125-125 0-17 14-31 31-31s32 14 32 31z m195 438c7 0 13-4 15-10l43-115h215c17 0 32-14 32-31v-563c0-17-15-31-32-31h-812c-17 0-31 14-31 31v563c0 17 14 31 31 31h215l39 104c5 13 17 21 30 21h255z m0 62h-255c-39 0-74-24-88-60l-24-65h-172c-52 0-94-42-94-93v-563c0-52 42-94 94-94h812c52 0 94 42 94 94v563c0 51-42 93-94 93h-172l-28 75c-11 30-40 50-73 50z" horiz-adv-x="1000" />

<glyph glyph-name="camera-retro" unicode="&#xe990;" d="M63 731v39c0 6 5 11 11 11h227c6 0 12-5 12-11v-39c0-7-6-12-12-12h-227c-6 0-11 5-11 12z m671-450c0 130-105 235-234 235s-234-105-234-235 105-234 234-234 234 105 234 234z m-62 0c0-94-77-172-172-172s-172 78-172 172 77 172 172 172 172-77 172-172z m-234 0c0 35 28 63 62 63 17 0 31 14 31 31s-14 31-31 31c-69 0-125-56-125-125 0-17 14-31 31-31s32 14 32 31z m562 407v-688c0-52-42-94-94-94h-812c-52 0-94 42-94 94v563c0 51 42 93 94 93h265l66 88c18 23 46 37 75 37h406c52 0 94-42 94-93z m-562-32h468c11 0 22-2 32-5v37c0 17-15 31-32 31h-406c-10 0-19-5-25-13l-37-50z m500-93c0 17-15 31-32 31h-812c-17 0-31-14-31-31v-563c0-17 14-31 31-31h812c17 0 32 14 32 31v563z" horiz-adv-x="1000" />

<glyph glyph-name="capsules" unicode="&#xe991;" d="M1033 264l-218 377c-60 104-193 140-297 80-41-24-71-60-89-100-26 92-110 160-210 160-121 0-219-98-219-218v-438c0-121 98-219 219-219s219 98 219 219v300c0 0 0-1 0-1l218-377c40-70 114-109 189-109 37 0 74 9 109 29 50 29 86 76 101 132 15 56 7 115-22 165z m-814 455c86 0 156-70 156-156v-219h-312v219c0 86 70 156 156 156z m0-750c-86 0-156 70-156 156v156h312v-156c0-86-70-156-156-156z m330 698c79 46 173 13 213-57l93-161-270-155-93 161c-43 74-17 169 57 212z m446-552c-11-40-37-74-72-95-75-43-170-17-213 57l-94 162 270 156 93-162c21-36 27-78 16-118z" horiz-adv-x="1062.5" />

<glyph glyph-name="car" unicode="&#xe992;" d="M297 250c0-34-59-31-94-31s-62 28-62 62 28 63 62 63 94-59 94-94z m500 94c-35 0-94-59-94-94s59-31 94-31 62 28 62 62-28 63-62 63z m202 172l-16-47c-3-9-12-16-22-16h-56c39-34 64-84 64-140v-110c0-30-12-57-31-76v-80c0-43-35-78-79-78h-93c-43 0-78 35-78 78v47h-375v-47c0-43-35-78-79-78h-93c-43 0-78 35-78 78v80c-20 19-32 46-32 76v110c0 56 25 106 64 140h-56c-10 0-19 7-22 16l0 0-16 47c-5 15 7 31 23 31h62c10 0 19-7 22-16l0 0 10-30 60 128c26 54 81 90 142 90h360c61 0 117-36 142-90l60-128 10 30c3 9 12 16 22 16h63c16 0 27-16 22-31z m-813-19c10 2 21 3 33 3 0 0 0 0 0 0h562c12 0 23-1 33-3l-49 105c-15 33-48 54-85 54h-360c-37 0-70-21-85-54l-49-105z m64-403c-118 0-114-1-125 1v-48c0-9 7-16 16-16h93c9 0 16 7 16 16v47z m625 1c-11-2-7-1-125-1v-47c0-9 7-16 16-16h93c9 0 16 7 16 16v48z m-94 343h-562c-69 0-125-57-125-125v-110c0-26 21-47 47-47h718c26 0 47 21 47 47v110c0 68-56 125-125 125z m-136-157h-289c-7 0-12-4-12-15 0-26 21-47 47-47h218c26 0 47 21 47 47 0 11-5 15-11 15z" horiz-adv-x="1000" />

<glyph glyph-name="caret-circle-down" unicode="&#xe993;" d="M500 828c-268 0-484-217-484-484s216-485 484-485 484 217 484 485-216 484-484 484z m422-484c0-232-188-422-422-422-232 0-422 188-422 422 0 232 188 422 422 422 232 0 422-188 422-422z m-234 62l-188-187-187 187h375z m-375 63c-56 0-84-68-45-107l188-187c24-25 64-25 88 0l188 187c39 39 11 107-44 107h-375z" horiz-adv-x="1000" />

<glyph glyph-name="caret-circle-left" unicode="&#xe994;" d="M984 344c0 267-216 484-484 484s-484-217-484-484 216-485 484-485 484 217 484 485z m-484-422c-232 0-422 188-422 422 0 232 188 422 422 422 232 0 422-188 422-422 0-232-188-422-422-422z m63 234l-188 188 188 187v-375z m62 375c0 56-67 84-107 44l-187-187c-25-24-25-64 0-89l187-187c40-39 107-12 107 44v375z" horiz-adv-x="1000" />

<glyph glyph-name="caret-circle-right" unicode="&#xe995;" d="M16 344c0-268 216-485 484-485s484 217 484 485-216 484-484 484-484-217-484-484z m484 422c232 0 422-188 422-422 0-232-188-422-422-422-232 0-422 188-422 422 0 232 188 422 422 422z m-62-235l187-187-187-188v375z m-63-375c0-55 67-83 107-44l187 188c25 24 25 64 0 88l-187 188c-40 39-107 11-107-45v-375z" horiz-adv-x="1000" />

<glyph glyph-name="caret-circle-up" unicode="&#xe996;" d="M500-141c268 0 484 217 484 485s-216 484-484 484-484-217-484-484 216-485 484-485z m-422 485c0 232 188 422 422 422 232 0 422-188 422-422 0-232-188-422-422-422-232 0-422 188-422 422z m235-63l187 188 188-188h-375z m375-62c55 0 83 67 44 106l-188 188c-24 24-64 24-88 0l-188-188c-39-39-11-106 44-106h376z" horiz-adv-x="1000" />

<glyph glyph-name="caret-down" unicode="&#xe997;" d="M562 531h-499c-56 0-84-67-45-106l250-250c25-25 64-25 89 0l250 250c39 39 11 106-45 106z m-249-312l-250 250h500l-250-250z" horiz-adv-x="625" />

<glyph glyph-name="caret-left" unicode="&#xe998;" d="M375 94v500c0 55-67 83-107 44l-250-250c-24-24-24-64 0-88l250-250c40-40 107-12 107 44z m-312 250l250 250v-500l-250 250z" horiz-adv-x="375" />

<glyph glyph-name="caret-right" unicode="&#xe999;" d="M0 594v-500c0-56 67-84 107-44l250 250c24 24 24 64 0 88l-250 250c-40 39-107 11-107-44z m313-250l-250-250v500l250-250z" horiz-adv-x="375" />

<glyph glyph-name="caret-square-down" unicode="&#xe99a;" d="M781 781h-687c-52 0-94-42-94-93v-688c0-52 42-94 94-94h687c52 0 94 42 94 94v688c0 51-42 93-94 93z m32-781c0-17-15-31-32-31h-687c-17 0-31 14-31 31v688c0 17 14 31 31 31h687c17 0 32-14 32-31v-688z m-188 406l-187-187-188 187h375z m-375 63c-55 0-84-68-44-107l187-187c25-25 64-25 89 0l187 187c40 39 12 107-44 107h-375z" horiz-adv-x="875" />

<glyph glyph-name="caret-square-left" unicode="&#xe99b;" d="M875 0v688c0 51-42 93-94 93h-687c-52 0-94-42-94-93v-688c0-52 42-94 94-94h687c52 0 94 42 94 94z m-781-31c-17 0-31 14-31 31v688c0 17 14 31 31 31h687c17 0 32-14 32-31v-688c0-17-15-31-32-31h-687z m406 187l-187 188 187 187v-375z m63 375c0 56-68 84-107 44l-188-187c-24-24-24-64 0-89l188-187c39-39 107-12 107 44v375z" horiz-adv-x="875" />

<glyph glyph-name="caret-square-right" unicode="&#xe99c;" d="M0 688v-688c0-52 42-94 94-94h687c52 0 94 42 94 94v688c0 51-42 93-94 93h-687c-52 0-94-42-94-93z m781 31c17 0 32-14 32-31v-688c0-17-15-31-32-31h-687c-17 0-31 14-31 31v688c0 17 14 31 31 31h687z m-406-188l188-187-188-188v375z m-62-375c0-55 67-83 106-44l188 188c24 24 24 64 0 88l-188 188c-39 39-106 11-106-45v-375z" horiz-adv-x="875" />

<glyph glyph-name="caret-square-up" unicode="&#xe99d;" d="M94-94h687c52 0 94 42 94 94v688c0 51-42 93-94 93h-687c-52 0-94-42-94-93v-688c0-52 42-94 94-94z m-31 782c0 17 14 31 31 31h687c17 0 32-14 32-31v-688c0-17-15-31-32-31h-687c-17 0-31 14-31 31v688z m187-407l188 188 187-188h-375z m375-62c56 0 84 67 44 106l-187 188c-25 24-64 24-89 0l-187-188c-39-39-12-106 44-106h375z" horiz-adv-x="875" />

<glyph glyph-name="caret-up" unicode="&#xe99e;" d="M63 156h499c56 0 84 68 45 107l-250 250c-25 24-64 24-89 0l-250-250c-39-39-11-107 45-107z m250 313l250-250h-500l250 250z" horiz-adv-x="625" />

<glyph glyph-name="cart-arrow-down" unicode="&#xe99f;" d="M1078 719h-825l-17 87c-4 22-23 38-46 38h-167c-12 0-23-11-23-24v-15c0-13 11-24 23-24h154l137-728c-20-22-33-52-33-84 0-69 56-125 125-125s125 56 125 125c0 0 0 0 0 0 0 23-6 44-17 63l1-1h283c-10-18-17-39-17-62 0 0 0 0 0 0v0c0-69 56-125 125-125s125 56 125 125c0 35-14 67-38 89-5 20-23 36-45 36h-578l-24 125h648c22 0 41 15 45 37l85 406c6 29-16 57-46 57z m-609-750c0-35-28-63-63-63s-62 28-62 63 28 62 62 62 63-28 63-62z m437-63c-34 0-62 28-62 63s28 62 62 62 63-28 63-62-28-63-63-63z m75 375h-646l-71 375h795l-78-375z m-208 148l-100-100c-9-9-24-9-33 0l-100 100c-15 15-4 40 17 40h68v101c0 13 11 24 23 24h16c13 0 24-11 24-24v-101h68c21 0 31-25 17-40z" horiz-adv-x="1125" />

<glyph glyph-name="cart-plus" unicode="&#xe9a0;" d="M1078 719h-825l-17 87c-4 22-23 38-46 38h-167c-12 0-23-11-23-24v-15c0-13 11-24 23-24h154l137-728c-20-22-33-52-33-84 0-69 56-125 125-125s125 56 125 125c0 0 0 0 0 0 0 23-6 44-17 63l1-1h283c-10-18-17-39-17-62 0 0 0 0 0 0v0c0-69 56-125 125-125s125 56 125 125c0 35-14 67-38 89-5 20-23 36-45 36h-578l-24 125h648c22 0 41 15 45 37l85 406c6 29-16 57-46 57z m-172-688c35 0 63-28 63-62s-28-63-63-63-62 28-62 63 28 62 62 62z m-500 0c35 0 63-28 63-62s-28-63-63-63-62 28-62 63 28 62 62 62z m575 250h-646l-71 375h795l-78-375z m-450 180v16c0 13 11 23 24 23h70v70c0 13 11 24 23 24h16c13 0 24-11 24-24v-70h70c13 0 23-10 23-23v-16c0-13-10-23-23-23h-70v-71c0-13-11-23-24-23h-16c-12 0-23 10-23 23v71h-70c-13 0-24 10-24 23z" horiz-adv-x="1125" />

<glyph glyph-name="certificate" unicode="&#xe9a1;" d="M968 312l-32 32 32 32c59 56 32 155-46 174l-45 12 13 44c22 78-51 149-128 128l-44-13-11 45c-20 78-119 105-175 46l-32-33-32 33c-55 58-155 33-174-46l-12-45-44 13c-76 21-150-49-128-128l13-44-45-12c-78-19-105-118-46-174l32-32-32-32c-59-56-32-155 46-175l45-11-13-44c-22-79 51-150 128-128l44 12 12-44c19-79 118-105 174-47l32 33 32-32c55-59 155-33 175 46l11 44 44-12c77-22 150 50 128 128l-13 44 45 11c78 20 105 119 46 175z m-61-114l-107-27 30-106c8-31-20-59-51-51l-106 30-27-107c-8-31-48-41-69-18l-77 78-77-78c-21-23-61-14-69 18l-27 107-106-30c-30-8-59 20-51 51l30 106-107 27c-30 7-41 47-18 69l79 77-79 77c-23 22-12 61 18 69l107 27-30 106c-8 31 21 59 51 51l106-30 27 107c8 30 48 41 69 18l77-79 77 79c22 23 62 12 69-18l27-107 106 30c31 8 59-20 51-51l-30-106 107-27c30-8 41-47 18-69l-79-77 79-77c23-22 12-62-18-69z" horiz-adv-x="1000" />

<glyph glyph-name="chart-area" unicode="&#xe9a2;" d="M977 31c13 0 23-10 23-23v-16c0-13-10-23-23-23h-954c-12 0-23 10-23 23v703c0 13 11 24 23 24h16c13 0 24-11 24-24v-664h914z m-250 496l-164-105-169 165c-10 10-27 9-35-2l-234-304v-187h813l-177 423c-6 14-22 18-34 10z m-539-268l192 257 175-175 167 112 121-297h-655v103z" horiz-adv-x="1000" />

<glyph glyph-name="chart-bar" unicode="&#xe9a3;" d="M977 31c13 0 23-10 23-23v-16c0-13-10-23-23-23h-954c-12 0-23 10-23 23v703c0 13 11 24 23 24h16c13 0 24-11 24-24v-664h914z m-664 137v164c0 7-6 12-12 12h-39c-7 0-12-5-12-12v-164c0-6 5-12 12-12h39c6 0 12 6 12 12z m562 0v477c0 6-5 11-12 11h-39c-6 0-11-5-11-11v-477c0-6 5-12 11-12h39c7 0 12 6 12 12z m-187 0v289c0 7-6 12-12 12h-39c-7 0-12-5-12-12v-289c0-6 5-12 12-12h39c6 0 12 6 12 12z m-188 0v414c0 7-5 12-12 12h-39c-6 0-11-5-11-12v-414c0-6 5-12 11-12h39c7 0 12 6 12 12z" horiz-adv-x="1000" />

<glyph glyph-name="chart-line" unicode="&#xe9a4;" d="M977 31c13 0 23-10 23-23v-16c0-13-10-23-23-23h-954c-12 0-23 10-23 23v703c0 13 11 24 23 24h16c13 0 24-11 24-24v-664h914z m-39 576v-183c0-57-70-86-110-46l-70 70-187-187c-5-5-12-5-17 0l-116 116-220-234c-4-4-12-4-16 0l-29 27c-4 4-5 11 0 16l256 272c4 5 12 5 16 0l118-117 151 151-70 70c-41 40-12 110 46 110h183c36 0 65-29 65-65z m-57 0c0 5-3 8-8 8h-183c-8 0-11-8-6-13l184-184c5-5 13-1 13 6v183z" horiz-adv-x="1000" />

<glyph glyph-name="chart-pie" unicode="&#xe9a5;" d="M500 820v-414h414c14 0 24 12 24 25-13 222-191 400-413 412-14 1-25-10-25-23z m63-43c156-26 281-151 308-308h-308v308z m-16-433l293-294c9-9 25-9 34 1 68 77 105 172 110 268 1 13-10 25-23 25h-414z m306-219l-155 156h219c-9-55-31-109-64-156z m-415 219v413c0 14-12 25-25 24-230-13-413-204-413-436-1-378 448-579 729-329 10 9 10 25 1 35l-292 293z m-375 0c0 188 138 341 312 370v-370c0-32-5-21 18-44l262-263c-246-176-592 2-592 307z" horiz-adv-x="1000" />

<glyph glyph-name="check" unicode="&#xe9a6;" d="M808 664l-547-547-194 194c-9 9-24 9-33 0l-22-22c-9-10-9-24 0-34l232-232c9-9 24-9 33 0l586 586c9 9 9 24 0 33l-22 22c-9 9-24 9-33 0z" horiz-adv-x="875" />

<glyph glyph-name="check-circle" unicode="&#xe9a7;" d="M500 828c-267 0-484-217-484-484s217-485 484-485 484 217 484 485-216 484-484 484z m0-906c-232 0-422 188-422 422 0 232 188 422 422 422 232 0 422-188 422-422 0-232-188-422-422-422z m277 537l-353-350c-9-9-24-9-33 0l-168 170c-9 9-9 24 0 33l17 16c9 9 24 9 33 0l135-136 319 317c9 9 24 9 33 0l17-17c9-9 9-24 0-33z" horiz-adv-x="1000" />

<glyph glyph-name="check-square" unicode="&#xe9a8;" d="M781 781h-687c-52 0-94-42-94-93v-688c0-52 42-94 94-94h687c52 0 94 42 94 94v688c0 51-42 93-94 93z m0-62c18 0 32-14 32-31v-688c0-17-14-31-32-31h-687c-17 0-31 14-31 31v688c0 17 14 31 31 31h687z m-67-192l-16 16c-9 10-24 10-33 1l-320-317-134 136c-9 9-24 9-33 0l-17-17c-9-9-9-24 0-33l168-169c9-9 23-9 33 0l352 350c9 9 9 24 0 33z" horiz-adv-x="875" />

<glyph glyph-name="chevron-circle-down" unicode="&#xe9b9;" d="M500 828c-268 0-484-217-484-484s216-485 484-485 484 217 484 485-216 484-484 484z m422-484c0-232-188-422-422-422-232 0-422 188-422 422 0 232 188 422 422 422 232 0 422-188 422-422z m-405-169l224 224c9 10 9 24 0 34l-14 14c-9 9-24 9-33 0l-194-195-194 194c-9 10-24 10-33 0l-14-14c-10-9-10-24 0-33l224-225c10-9 24-9 34 1z" horiz-adv-x="1000" />

<glyph glyph-name="chevron-circle-left" unicode="&#xe9ba;" d="M984 344c0 267-216 484-484 484s-484-217-484-484 216-485 484-485 484 217 484 485z m-484-422c-232 0-422 188-422 422 0 232 188 422 422 422 232 0 422-188 422-422 0-232-188-422-422-422z m-169 438l225 225c9 9 24 9 33 0l14-14c9-9 9-24 0-33l-195-194 195-195c9-9 9-24 0-33l-14-14c-9-9-24-9-33 0l-225 225c-9 9-9 24 0 33z" horiz-adv-x="1000" />

<glyph glyph-name="chevron-circle-right" unicode="&#xe9bb;" d="M16 344c0-268 216-485 484-485s484 217 484 485-216 484-484 484-484-217-484-484z m484 422c232 0 422-188 422-422 0-232-188-422-422-422-232 0-422 188-422 422 0 232 188 422 422 422z m169-439l-225-224c-9-10-24-10-33 0l-14 13c-9 10-9 24 0 34l195 194-194 194c-10 9-10 24 0 33l13 14c10 9 24 9 34 0l224-224c9-10 9-25 0-34z" horiz-adv-x="1000" />

<glyph glyph-name="chevron-circle-up" unicode="&#xe9bc;" d="M500-141c268 0 484 217 484 485s-216 484-484 484-484-217-484-484 216-485 484-485z m-422 485c0 232 188 422 422 422 232 0 422-188 422-422 0-232-188-422-422-422-232 0-422 188-422 422z m439 169l224-225c9-9 9-24 0-33l-14-14c-9-9-24-9-33 0l-194 195-194-195c-9-9-24-9-33 0l-14 14c-10 9-10 24 0 33l224 225c10 9 24 9 34 0z" horiz-adv-x="1000" />

<glyph glyph-name="chevron-double-down" unicode="&#xe9bd;" d="M866 651l-412-412c-9-9-24-9-33 0l-412 412c-9 10-9 24 0 34l14 13c9 10 24 10 33 0l382-381 381 381c10 9 24 9 34 0l13-14c9-9 9-23 0-33z m0-216l-14 13c-9 10-24 10-33 0l-381-381-382 381c-9 9-24 9-33 0l-14-14c-10-9-10-24 0-33l412-412c9-9 24-9 33 0l412 412c9 10 9 24 0 34z" horiz-adv-x="875" />

<glyph glyph-name="chevron-double-left" unicode="&#xe9be;" d="M683-85l-413 412c-9 9-9 24 0 33l413 413c9 9 24 9 33 0l14-14c9-10 9-24 0-34l-382-381 382-382c9-9 9-24 0-33l-14-14c-9-9-24-9-33 0z m-217 0l14 14c9 9 9 24 0 33l-382 382 382 382c9 9 9 24 0 33l-14 14c-10 9-24 9-34 0l-412-412c-9-10-9-24 0-34l412-412c10-9 25-9 34 0z" horiz-adv-x="750" />

<glyph glyph-name="chevron-double-right" unicode="&#xe9bf;" d="M67 773l413-413c9-9 9-24 0-33l-413-412c-9-9-24-9-33 0l-14 14c-9 9-9 24 0 33l382 382-381 382c-10 9-10 24 0 33l13 14c9 9 24 9 33 0z m217 0l-14-14c-9-10-9-24 0-34l382-381-381-382c-10-9-10-24 0-33l13-14c10-9 24-9 34 0l412 412c9 9 9 24 0 33l-412 412c-10 10-25 10-34 1z" horiz-adv-x="750" />

<glyph glyph-name="chevron-double-up" unicode="&#xe9c0;" d="M9 36l412 412c9 10 24 10 33 0l412-412c9-9 9-24 0-33l-14-14c-9-9-24-9-33 0l-381 382-382-382c-9-9-24-9-33 0l-14 14c-9 9-9 24 0 33z m0 217l14-14c9-9 24-9 33 0l382 382 381-382c10-9 24-9 34 0l13 14c10 9 10 24 0 33l-412 412c-9 10-24 10-33 0l-412-412c-9-9-9-24 0-33z" horiz-adv-x="875" />

<glyph glyph-name="chevron-down" unicode="&#xe9c1;" d="M866 526l-14 14c-9 9-24 9-33 0l-381-382-382 382c-9 9-24 9-33 0l-14-14c-10-9-10-24 0-33l412-412c9-9 24-9 33 0l412 412c9 9 9 24 0 33z" horiz-adv-x="875" />

<glyph glyph-name="chevron-left" unicode="&#xe9c2;" d="M466-85l14 14c9 9 9 24 0 33l-382 382 382 382c9 9 9 24 0 33l-14 14c-9 9-24 9-33 0l-413-413c-9-9-9-24 0-33l413-412c9-9 24-9 33 0z" horiz-adv-x="500" />

<glyph glyph-name="chevron-right" unicode="&#xe9c3;" d="M34 773l-14-14c-9-9-9-24 0-33l382-382-382-382c-9-9-9-24 0-33l14-14c9-9 24-9 33 0l413 412c9 9 9 24 0 33l-413 413c-9 9-24 9-33 0z" horiz-adv-x="500" />

<glyph glyph-name="chevron-square-down" unicode="&#xe9c4;" d="M781 781h-687c-52 0-94-42-94-93v-688c0-52 42-94 94-94h687c52 0 94 42 94 94v688c0 51-42 93-94 93z m32-781c0-17-15-31-32-31h-687c-17 0-31 14-31 31v688c0 17 14 31 31 31h687c17 0 32-14 32-31v-688z m-392 188l-225 225c-9 9-9 24 0 33l14 14c9 9 24 9 33 0l195-194 194 194c9 9 24 9 33 0l14-14c9-9 9-24 0-33l-225-225c-9-9-24-9-33 0z" horiz-adv-x="875" />

<glyph glyph-name="chevron-square-left" unicode="&#xe9c5;" d="M875 0v688c0 51-42 93-94 93h-687c-52 0-94-42-94-93v-688c0-52 42-94 94-94h687c52 0 94 42 94 94z m-781-31c-17 0-31 14-31 31v688c0 17 14 31 31 31h687c17 0 32-14 32-31v-688c0-17-15-31-32-31h-687z m188 391l225 225c9 9 24 9 33 0l14-14c9-9 9-24 0-33l-195-194 195-195c9-9 9-24 0-33l-14-14c-9-9-24-9-33 0l-225 225c-9 9-9 24 0 33z" horiz-adv-x="875" />

<glyph glyph-name="chevron-square-right" unicode="&#xe9c6;" d="M0 688v-688c0-52 42-94 94-94h687c52 0 94 42 94 94v688c0 51-42 93-94 93h-687c-52 0-94-42-94-93z m781 31c17 0 32-14 32-31v-688c0-17-15-31-32-31h-687c-17 0-31 14-31 31v688c0 17 14 31 31 31h687z m-188-392l-225-224c-9-10-24-10-33 0l-14 13c-9 10-9 24 0 34l195 194-195 194c-9 9-9 24 0 33l14 14c9 9 24 9 33 0l225-224c9-10 9-25 0-34z" horiz-adv-x="875" />

<glyph glyph-name="chevron-square-up" unicode="&#xe9c7;" d="M94-94h687c52 0 94 42 94 94v688c0 51-42 93-94 93h-687c-52 0-94-42-94-93v-688c0-52 42-94 94-94z m-31 782c0 17 14 31 31 31h687c17 0 32-14 32-31v-688c0-17-15-31-32-31h-687c-17 0-31 14-31 31v688z m391-189l225-225c9-9 9-24 0-33l-14-14c-9-9-24-9-33 0l-194 195-195-194c-9-10-24-10-33 0l-14 13c-9 10-9 24 0 34l225 224c9 9 24 9 33 0z" horiz-adv-x="875" />

<glyph glyph-name="chevron-up" unicode="&#xe9c8;" d="M9 128l14-14c9-9 24-9 33 0l382 382 381-382c10-9 24-9 34 0l13 14c9 9 9 24 0 33l-412 412c-9 10-24 10-33 0l-412-412c-9-9-9-24 0-33z" horiz-adv-x="875" />

<glyph glyph-name="child" unicode="&#xe9c9;" d="M807 667c-46 46-123 53-182-6-3 101-86 183-187 183-102 0-185-82-188-183-59 59-136 52-182 6-49-49-49-128 0-177l151-151v-386c0-60 49-109 109-109h31c31 0 59 12 79 33 19-21 47-33 78-33h31c60 0 109 49 109 109v386l151 151c49 49 49 128 0 177z m-369 114c69 0 125-56 125-125s-56-125-125-125-125 56-125 125 56 125 125 125z m325-247l-169-169v-412c0-26-21-47-47-47h-31c-26 0-47 21-47 47v219h-63v-219c0-26-21-47-47-47h-31c-26 0-47 21-47 47v412l-169 169c-24 24-24 64 0 88 25 25 64 25 88 0l154-153h167l154 153c24 25 64 25 88 0 24-24 24-64 0-88z" horiz-adv-x="875" />

<glyph glyph-name="circle-notch" unicode="&#xe9cb;" d="M563 797v-16c0-12 8-21 18-23l0 0c194-38 341-208 341-414 0-232-188-422-422-422-232 0-422 188-422 422 0 204 146 376 341 414 10 2 19 11 19 23v0 16c0 14-14 25-28 23-225-43-396-241-394-479 1-267 217-482 485-482 267 1 483 218 483 485 0 236-169 434-394 476-14 2-27-9-27-23z" horiz-adv-x="1000" />

<glyph glyph-name="clipboard" unicode="&#xe9cc;" d="M656 719h-173c1 5 1 10 1 15 0 61-49 110-109 110s-109-49-109-110c0-5 0-10 1-15h-173c-52 0-94-42-94-94v-688c0-51 42-93 94-93h562c52 0 94 42 94 93v688c0 52-42 94-94 94z m32-782c0-17-14-31-32-31h-562c-17 0-31 14-31 31v688c0 17 14 31 31 31h94v-39c0-13 10-23 23-23h328c13 0 24 10 24 23v39h93c18 0 32-14 32-31v-688z m-313 844c26 0 47-21 47-47s-21-46-47-46-47 21-47 46 21 47 47 47z" horiz-adv-x="750" />

<glyph glyph-name="clipboard-check" unicode="&#xe9cd;" d="M656 719h-173c1 5 1 10 1 15 0 61-49 110-109 110s-109-49-109-110c0-5 0-10 1-15h-173c-52 0-94-42-94-94v-688c0-51 42-93 94-93h562c52 0 94 42 94 93v688c0 52-42 94-94 94z m-281 62c26 0 47-21 47-47s-21-46-47-46-47 20-47 46 21 47 47 47z m313-844c0-17-15-31-32-31h-562c-17 0-31 14-31 31v688c0 17 14 31 31 31h94v-39c0-13 10-23 23-23h328c13 0 24 10 24 23v39h93c17 0 32-14 32-31v-688z m-115 462c-10 9-25 9-34 0l-230-228-98 99c-9 9-24 9-33 0l-17-16c-9-10-9-24 0-34l132-132c9-9 24-9 33 0l263 261c9 10 9 24 1 34l-17 16z" horiz-adv-x="750" />

<glyph glyph-name="clipboard-list" unicode="&#xe9ce;" d="M547 375h-219c-8 0-15-7-15-16v-31c0-8 7-15 15-15h219c9 0 16 7 16 15v31c0 9-7 16-16 16z m0-187h-219c-8 0-15-7-15-16v-31c0-9 7-16 15-16h219c9 0 16 7 16 16v31c0 9-7 16-16 16z m-328 203c-26 0-47-21-47-47s21-47 47-47 47 21 47 47-21 47-47 47z m0-188c-26 0-47-21-47-47s21-47 47-47 47 21 47 47-21 47-47 47z m437 516h-173c1 5 1 10 1 15 0 61-49 110-109 110s-109-49-109-110c0-5 0-10 1-15h-173c-52 0-94-42-94-94v-688c0-51 42-93 94-93h562c52 0 94 42 94 93v688c0 52-42 94-94 94z m-281 62c26 0 47-21 47-47s-21-46-47-46-47 20-47 46 21 47 47 47z m313-844c0-17-15-31-32-31h-562c-17 0-31 14-31 31v688c0 17 14 31 31 31h94v-39c0-13 10-23 23-23h328c13 0 24 10 24 23v39h93c17 0 32-14 32-31v-688z" horiz-adv-x="750" />

<glyph glyph-name="clock" unicode="&#xe9cf;" d="M500 828c-268 0-484-217-484-484s216-485 484-485 484 217 484 485-216 484-484 484z m422-484c0-232-188-422-422-422-232 0-422 188-422 422 0 232 188 422 422 422 232 0 422-188 422-422z m-291-173l-158 116c-7 4-10 11-10 19v311c0 13 10 24 23 24h28c13 0 23-11 23-24v-286l138-100c10-7 13-22 5-33l-16-22c-8-10-22-12-33-5z" horiz-adv-x="1000" />

<glyph glyph-name="clone" unicode="&#xe9d0;" d="M906 844h-625c-51 0-93-42-93-94v-94h-94c-52 0-94-42-94-93v-626c0-51 42-93 94-93h625c52 0 94 42 94 93v94h93c52 0 94 42 94 94v625c0 52-42 94-94 94z m-156-907c0-17-14-31-31-31h-625c-17 0-31 14-31 31v626c0 17 14 31 31 31h94v-469c0-52 42-94 93-94h469v-94z m188 188c0-17-14-31-32-31h-625c-17 0-31 14-31 31v625c0 17 14 31 31 31h625c18 0 32-14 32-31v-625z" horiz-adv-x="1000" />

<glyph glyph-name="closed-captioning" unicode="&#xe9d1;" d="M481 476l-19-30c-4-6-11-7-17-3-80 61-221 28-221-95 0-126 137-166 218-93 6 5 14 4 18-2l21-28c3-5 3-11-1-16-97-97-324-57-324 138 0 188 231 229 323 144 4-4 5-11 2-15z m425 243h-812c-52 0-94-42-94-94v-562c0-52 42-94 94-94h812c52 0 94 42 94 94v562c0 52-42 94-94 94z m32-656c0-18-15-32-32-32h-812c-17 0-31 14-31 32v562c0 17 14 31 31 31h812c17 0 32-14 32-31v-562z m-96 413l-19-30c-4-6-11-7-17-3-80 61-221 28-221-95 0-126 137-166 218-93 5 5 13 4 18-2l21-28c3-5 3-11-2-16-95-97-323-57-323 138 0 188 231 229 323 144 4-4 5-11 2-15z" horiz-adv-x="1000" />

<glyph glyph-name="cloud" unicode="&#xe9d2;" d="M531 719c118 0 219-73 261-175 28 31 69 50 114 50 87 0 157-70 157-156 0-37-13-70-34-97 90-14 159-91 159-185 0-103-84-187-188-187h-719c-121 0-218 98-218 219 0 110 82 202 189 216-1 10-2 22-2 34v0c0 155 126 281 281 281z m0 62c-184 0-335-145-343-328-111-39-188-145-188-265 0-156 126-282 281-282h719c138 0 250 112 250 250 0 92-50 178-133 221 5 20 8 40 8 61 0 120-98 218-219 218-32 0-64-7-93-21-62 88-165 146-282 146z" horiz-adv-x="1250" />

<glyph glyph-name="cloud-download" unicode="&#xe9d3;" d="M531 719c118 0 219-73 261-175 28 31 69 50 114 50 87 0 157-70 157-156 0-37-13-70-34-97 90-14 159-91 159-185 0-103-84-187-188-187h-719c-121 0-218 98-218 219 0 110 82 202 189 216-1 10-2 22-2 34v0c0 155 126 281 281 281z m0 62c-184 0-335-145-343-328-111-39-188-145-188-265 0-156 126-282 281-282h719c138 0 250 112 250 250 0 92-50 178-133 221 5 20 8 40 8 61 0 120-98 218-219 218-32 0-64-7-93-21-62 88-165 146-282 146z m32-273v-295l-134 134c-9 9-24 9-33 0l-11-11c-9-10-9-24 0-34l192-192c9-9 24-9 33 0l192 192c10 10 10 24 0 34l-11 11c-9 9-24 9-33 0l-133-134v295c0 13-10 23-23 23h-16c-13 0-23-10-23-23z" horiz-adv-x="1250" />

<glyph glyph-name="cloud-upload" unicode="&#xe9d5;" d="M531 719c118 0 219-73 261-175 28 31 69 50 114 50 87 0 157-70 157-156 0-37-13-70-34-97 90-14 159-91 159-185 0-103-84-187-188-187h-719c-121 0-218 98-218 219 0 110 82 202 189 216-1 10-2 22-2 34v0c0 155 126 281 281 281z m0 62c-184 0-335-145-343-328-111-39-188-145-188-265 0-156 126-282 281-282h719c138 0 250 112 250 250 0 92-50 178-133 221 5 20 8 40 8 61 0 120-98 218-219 218-32 0-64-7-93-21-62 88-165 146-282 146z m94-664v295l133-134c9-9 24-9 33 0l11 12c10 9 10 23 0 33l-192 192c-9 9-24 9-33 0l-192-192c-9-9-9-24 0-33l11-12c9-9 24-9 33 0l134 134v-295c0-13 10-23 23-23h16c13 0 23 10 23 23z" horiz-adv-x="1250" />

<glyph glyph-name="code" unicode="&#xe9d8;" d="M446-156l-48 14c-7 2-10 8-8 14l274 963c2 6 9 10 15 8l49-14c6-1 9-8 8-14l-275-963c-2-6-9-10-15-8z m-147 245l36 41c4 4 3 10-1 14l-236 200 236 200c4 4 5 10 1 14l-36 41c-4 4-10 4-14 0l-282-248c-4-4-4-11 0-15l282-248c4-4 10-3 14 1z m541-1l282 249c4 3 4 10 0 14l-282 248c-4 4-10 4-14 0l-36-41c-3-4-3-10 1-14l237-200-237-200c-4-4-4-10-1-14l36-41c4-4 10-5 14-1z" horiz-adv-x="1125" />

<glyph glyph-name="code-branch" unicode="&#xe9d9;" d="M750 563c0 86-70 156-156 156s-156-70-156-156c0-77 55-141 127-154-1-34-9-60-24-78-35-43-104-50-177-56-56-5-113-11-158-33-6-4-13-7-18-11v303c71 15 125 78 125 154 0 86-70 156-157 156s-156-70-156-156c0-76 54-139 125-154v-381c-71-14-125-77-125-153 0-86 70-156 156-156s157 70 157 156c0 72-49 133-115 151 9 19 24 28 37 35 34 17 83 22 134 27 83 8 170 16 220 79 25 30 37 69 39 118 70 16 122 78 122 153z m-687 125c0 51 42 93 93 93s94-42 94-93-42-94-94-94-93 42-93 94z m187-688c0-52-42-94-94-94s-93 42-93 94c0 52 41 94 93 94h1c51-1 93-43 93-94z m367 472l-23-3c-52 0-94 42-94 94s42 93 94 93 94-42 94-93c0-44-31-81-71-91z" horiz-adv-x="750" />

<glyph glyph-name="code-commit" unicode="&#xe9da;" d="M250 344c0-21 2-42 5-63h-232c-12 0-23 11-23 24v78c0 13 11 23 23 23h232c-3-20-5-41-5-62z m977 62h-232c3-20 5-41 5-62s-2-42-5-63h232c13 0 23 11 23 24v78c0 13-10 23-23 23z m-602 157c-58 0-113-23-155-65-41-41-64-96-64-154s23-113 64-155c42-41 97-64 155-64s113 23 155 64c41 42 64 96 64 155s-23 113-64 154c-42 42-97 65-155 65z m0 93c173 0 313-140 313-312s-140-313-313-313-312 140-312 313 139 312 312 312z" horiz-adv-x="1250" />

<glyph glyph-name="code-merge" unicode="&#xe9db;" d="M594 469c-82 0-149-63-156-142-49 2-120 15-173 62-40 34-64 84-74 146 70 16 122 78 122 152 0 87-70 157-157 157s-156-70-156-156c0-76 54-139 125-154v-381c-71-14-125-77-125-153 0-86 70-156 156-156s157 70 157 156c0 76-54 139-125 153v227c10-14 22-27 36-39 71-62 163-76 221-77 21-63 79-108 149-108 86 0 156 70 156 157s-70 156-156 156z m-531 219c0 51 42 93 93 93s94-42 94-93-42-94-94-94-93 42-93 94z m187-688c0-52-42-94-94-94s-93 42-93 94 42 94 93 94 94-42 94-94z m344 219c-52 0-94 42-94 94s42 93 94 93 94-42 94-93-42-94-94-94z" horiz-adv-x="750" />

<glyph glyph-name="coffee" unicode="&#xe9dc;" d="M1012-31h-961c-48 0-65 62-39 62h1039c25 0 8-62-39-62z m113 564c1-104-83-189-187-189h-63v-63c0-103-84-187-187-187h-375c-104 0-188 84-188 187v414c0 13 11 24 23 24h787c103 0 189-83 190-186z m-312 123h-625v-375c0-69 56-125 125-125h375c68 0 125 56 125 125v375z m250-125c0 69-57 125-125 125h-63v-250h63c68 0 125 56 125 125z" horiz-adv-x="1125" />

<glyph glyph-name="cog" unicode="&#xe9dd;" d="M943 259l-64 37c2 14 3 31 3 48s-1 33-3 49l0-1 64 36c19 11 28 33 21 54-22 74-60 140-112 195-15 15-39 19-57 8l-64-37c-24 19-51 35-80 47l-3 1v73c0 22-15 41-36 46-73 18-150 18-224 0-21-5-36-24-36-46v-73c-32-13-59-29-84-48l1 0-63 37c-19 11-43 7-58-8-51-55-90-121-112-195-6-21 3-43 21-54l64-36c-2-15-3-31-3-48s1-34 3-50l0 2-64-37c-18-11-27-33-21-53 22-74 61-141 112-195 15-16 39-19 58-8l63 36c24-18 51-34 80-47l3-1v-73c0-22 15-41 36-46 73-17 151-17 224 0 21 5 36 24 36 46v73c32 14 59 30 84 49l-1-1 64-36c18-11 42-8 57 8 52 54 90 121 112 195 7 20-2 42-21 53z m-128-196l-91 52c-52-45-71-56-138-80v-104c-26-6-56-9-86-9s-60 3-88 9l2 0v104c-65 23-84 34-138 80l-91-52c-38 43-68 94-86 148l91 53c-13 69-13 91 0 160l-91 52c18 55 48 105 86 149l91-53c53 46 72 57 138 81v104c26 6 56 9 86 9s60-3 89-10l-3 1v-104c66-24 85-35 138-81l91 53c38-44 68-94 86-149l-91-52c13-69 13-91 0-160l91-53c-18-54-48-105-86-148z m-315 468c-103 0-187-84-187-187s84-188 187-188 188 84 188 188-85 187-188 187z m0-312c-69 0-125 56-125 125s56 125 125 125 125-56 125-125-56-125-125-125z" horiz-adv-x="1000" />

<glyph glyph-name="cogs" unicode="&#xe9de;" d="M1052 460l-5 8c-8-1-16-1-24 0l-5-8c-11-18-33-26-53-20-27 9-45 17-67 36-18 14-22 39-11 59l5 8c-4 7-8 14-12 21h-18c-22 0-41 16-46 38-5 27-5 48 0 76 5 22 24 38 47 38h17c4 7 8 14 12 20l-5 9c-11 20-7 45 10 59 21 18 39 28 66 37 21 8 44-1 55-20l5-9c8 1 16 1 24 0l5 9c12 19 35 28 56 20 26-9 44-18 65-37 18-15 22-39 10-59l-5-9c5-6 9-13 12-20h10c23 0 42-16 46-39 5-26 6-47 0-75-4-22-23-38-46-38h-10c-3-7-7-14-12-21l5-8c12-20 7-45-10-60-21-17-39-26-67-35-20-6-43 2-54 20z m24 68l21-36c13 5 25 12 36 21l-21 36 13 14c9 11 17 24 21 38l7 18h41c2 14 2 28 0 42h-41l-7 18c-5 14-12 26-21 37l-13 15 21 36c-11 8-24 15-37 21l-20-36-19 4c-15 2-29 2-43 0l-19-4-21 36c-13-5-25-13-36-21l20-36-12-15c-10-11-17-23-22-37l-6-18h-41c-2-14-2-28 0-42h41l6-18c5-14 12-26 22-37l12-15-20-36c11-9 23-16 36-21l21 36 19-4c14-3 29-3 43 0l19 4z m-792-572v62c-25 11-49 25-71 41l-54-31c-19-11-43-7-58 9-47 52-75 97-99 172-7 21 2 44 21 55l54 31c-4 27-4 55 0 82l-54 31c-19 11-28 34-21 55 24 75 51 120 99 172 15 16 39 20 58 9l54-31c22 16 45 30 71 41v62c0 22 15 41 36 45 68 16 121 17 199 0 21-4 37-23 37-45v-62c25-11 49-25 71-41l54 31c19 11 43 7 58-9 52-58 81-109 101-173 7-21-1-43-19-54l-49-31c3-27 3-55 0-82l55-34c16-11 25-31 21-50-14-61-65-126-109-174-15-16-39-20-58-9l-54 31c-22-17-46-30-71-41v-62c0-22-15-41-37-46-73-16-127-16-199 0-21 5-36 24-36 46z m62 12c49-9 99-9 147 0v94l21 7c33 12 63 29 90 52l17 14 81-46c32 37 66 80 82 127l-81 47 4 21c6 35 6 70 0 104l-4 22 81 46c-16 47-50 91-82 128l-81-47-17 14c-27 23-57 41-90 52l-21 8v93c-48 9-98 9-147 0v-94l-21-7c-32-12-63-29-89-52l-17-14-81 46c-31-35-57-78-73-124l0-3 80-47-4-21c-6-35-6-70 0-104l4-22-80-46c15-47 40-91 73-128l81 47 17-14c26-23 56-41 89-52l21-8v-93z m75 206c-89 0-162 73-162 162s73 162 162 162 162-73 162-162-72-162-162-162z m0 261c-54 0-99-44-99-99s44-99 99-99c55 0 100 44 100 99s-45 99-100 99z m631-569l-5 7c-8 0-16 0-24 0l-5-8c-11-18-33-26-53-19-27 8-45 17-67 35-18 14-22 40-11 59l5 9c-4 6-8 13-12 20h-18c-22 0-41 16-46 39-5 27-5 47 0 75 5 22 24 38 47 38h17c4 7 8 14 12 21l-5 9c-11 19-7 44 10 59 21 18 39 28 66 37 21 7 44-1 55-21l5-8c8 0 16 0 24 0l5 8c12 20 35 28 56 21 26-9 44-19 65-38 18-14 22-39 10-59l-5-8c5-7 9-14 12-21h10c23 0 42-16 46-38 5-27 6-47 0-75-4-23-23-39-46-39h-10c-3-7-7-14-12-20l5-9c12-20 7-45-10-59-21-17-39-26-67-35-20-6-43 2-54 20z m24 67l21-36c13 6 25 13 36 22l-21 35 13 15c9 11 17 24 21 37l7 18h41c2 14 2 29 0 42h-41l-7 19c-5 13-12 26-21 37l-13 15 21 35c-11 9-23 16-36 21l-21-35-19 3c-14 3-29 3-43 0l-19-3-21 35c-13-5-25-12-36-21l20-35-12-15c-10-11-17-24-22-37l-6-19h-41c-2-13-2-28 0-42h41l6-18c5-13 12-26 22-37l12-15-20-35c11-9 23-16 36-22l21 36 19-3c14-3 29-3 43 0l19 3z m18 114c0 34-28 62-63 62s-62-28-62-62 28-63 62-63 63 28 63 63z m0 594c0 35-28 63-63 63s-62-28-62-63 28-62 62-62 63 28 63 62z" horiz-adv-x="1250" />

<glyph glyph-name="columns" unicode="&#xe9df;" d="M906 781h-812c-52 0-94-42-94-93v-688c0-52 42-94 94-94h812c52 0 94 42 94 94v688c0 51-42 93-94 93z m-437-812h-375c-17 0-31 14-31 31v656h406v-687z m469 31c0-17-14-31-32-31h-375v687h407v-656z" horiz-adv-x="1000" />

<glyph glyph-name="comment" unicode="&#xe9e0;" d="M500 719c241 0 438-154 438-344s-197-344-438-344c-55 0-110 9-162 25l-30 10-26-18c-44-32-114-69-200-78 24 30 58 79 80 136l14 37-27 28c-57 60-86 131-86 204 0 190 196 344 437 344z m0 62c-276 0-500-182-500-406 0-93 39-178 103-247-29-77-89-142-90-143-13-13-17-33-9-50s24-29 43-29c120 0 215 50 271 91 57-18 118-28 182-28 276 0 500 182 500 406s-224 406-500 406z" horiz-adv-x="1000" />

<glyph glyph-name="comment-alt" unicode="&#xe9e1;" d="M875 844h-750c-69 0-125-56-125-125v-563c0-69 56-125 125-125h188v-164c0-14 11-23 23-23 5 0 10 1 14 4l244 183h281c69 0 125 56 125 125v563c0 69-56 125-125 125z m63-688c0-34-29-62-63-62h-302l-17-13-181-136v149h-250c-34 0-62 28-62 62v563c0 34 28 62 62 62h750c34 0 63-28 63-62v-563z" horiz-adv-x="1000" />

<glyph glyph-name="comment-alt-check" unicode="&#xe9e2;" d="M875 844h-750c-69 0-125-56-125-125v-563c0-69 56-125 125-125h188v-164c0-14 11-23 23-23 5 0 10 1 14 4l244 183h281c69 0 125 56 125 125v563c0 69-56 125-125 125z m63-688c0-34-29-62-63-62h-302l-17-13-181-136v149h-250c-34 0-62 28-62 62v563c0 34 28 62 62 62h750c34 0 63-28 63-62v-563z m-264 425c-3 3-7 5-11 5-4 0-8-2-11-5l-210-210-94 95c-3 3-7 5-11 5-4 0-8-2-12-5l-22-22c-6-6-6-16 0-22l128-128c3-3 7-4 11-4s8 1 12 4l243 243c6 6 6 16 0 22l-23 22z" horiz-adv-x="1000" />

<glyph glyph-name="comment-alt-dots" unicode="&#xe9e3;" d="M875 844h-750c-69 0-125-56-125-125v-563c0-69 56-125 125-125h188v-164c0-14 11-23 23-23 5 0 10 1 14 4l244 183h281c69 0 125 56 125 125v563c0 69-56 125-125 125z m63-688c0-34-29-62-63-62h-302l-17-13-181-136v149h-250c-34 0-62 28-62 62v563c0 34 28 62 62 62h750c34 0 63-28 63-62v-563z m-688 328c-26 0-47-20-47-46s21-47 47-47 47 21 47 47-21 46-47 46z m250 0c-26 0-47-20-47-46s21-47 47-47 47 21 47 47-21 46-47 46z m250 0c-26 0-47-20-47-46s21-47 47-47 47 21 47 47-21 46-47 46z" horiz-adv-x="1000" />

<glyph glyph-name="comment-alt-edit" unicode="&#xe9e4;" d="M875 844h-750c-69 0-125-56-125-125v-563c0-69 56-125 125-125h188v-164c0-14 11-23 23-23 5 0 10 1 14 4l244 183h281c69 0 125 56 125 125v563c0 69-56 125-125 125z m63-688c0-34-29-62-63-62h-302l-17-13-181-136v149h-250c-34 0-62 28-62 62v563c0 34 28 62 62 62h750c34 0 63-28 63-62v-563z m-282 482c-24 24-64 24-88 0l-246-246c-4-4-7-9-8-14l-32-120c-2-11 0-22 8-30 6-6 14-9 23-9 2 0 5 0 7 1l120 31c5 1 10 4 14 8l246 247c25 24 25 64 0 88l-44 44z m-240-329l-60-15 16 60 146 146 45-44-147-147z m191 191l-44 44 49 50 44-44-49-50z" horiz-adv-x="1000" />

<glyph glyph-name="comment-alt-exclamation" unicode="&#xe9e5;" d="M875 844h-750c-69 0-125-56-125-125v-563c0-69 56-125 125-125h188v-164c0-14 11-23 23-23 5 0 10 1 14 4l244 183h281c69 0 125 56 125 125v563c0 69-56 125-125 125z m63-688c0-34-29-62-63-62h-302l-17-13-181-136v149h-250c-34 0-62 28-62 62v563c0 34 28 62 62 62h750c34 0 63-28 63-62v-563z m-438 172c-26 0-47-21-47-47s21-47 47-47 47 21 47 47-21 47-47 47z m-17 47h34c8 0 15 6 15 15l14 218c1 9-7 17-16 17h-60c-9 0-16-8-16-17l14-218c0-9 7-15 15-15z" horiz-adv-x="1000" />

<glyph glyph-name="comment-alt-lines" unicode="&#xe9e6;" d="M875 844h-750c-69 0-125-56-125-125v-563c0-69 56-125 125-125h188v-164c0-14 11-23 23-23 5 0 10 1 14 4l244 183h281c69 0 125 56 125 125v563c0 69-56 125-125 125z m63-688c0-34-29-62-63-62h-302l-17-13-181-136v149h-250c-34 0-62 28-62 62v563c0 34 28 62 62 62h750c34 0 63-28 63-62v-563z m-391 219h-281c-9 0-16-7-16-16v-31c0-8 7-15 16-15h281c9 0 16 7 16 15v31c0 9-7 16-16 16z m187 188h-468c-9 0-16-7-16-16v-31c0-9 7-16 16-16h468c9 0 16 7 16 16v31c0 9-7 16-16 16z" horiz-adv-x="1000" />

<glyph glyph-name="comment-alt-times" unicode="&#xe9eb;" d="M875 844h-750c-69 0-125-56-125-125v-563c0-69 56-125 125-125h188v-164c0-14 11-23 23-23 5 0 10 1 14 4l244 183h281c69 0 125 56 125 125v563c0 69-56 125-125 125z m63-688c0-34-29-62-63-62h-302l-17-13-181-136v149h-250c-34 0-62 28-62 62v563c0 34 28 62 62 62h750c34 0 63-28 63-62v-563z m-294 403l-22 22c-4 3-7 5-12 5s-8-2-11-5l-99-99-99 99c-3 3-7 5-11 5s-9-2-12-5l-22-22c-6-6-6-16 0-22l100-99-100-100c-6-6-6-16 0-22l22-22c3-3 7-4 12-4s8 1 11 4l99 99 99-99c4-3 7-4 12-4s8 1 11 4l22 22c6 6 6 16 0 22l-100 100 100 99c6 6 6 16 0 22z" horiz-adv-x="1000" />

<glyph glyph-name="comment-check" unicode="&#xe9ec;" d="M674 519c-3 3-7 4-11 4-4 0-8-1-11-4l-210-210-94 95c-3 3-7 4-11 4-4 0-8-2-12-4l-22-23c-6-6-6-16 0-22l128-128c3-3 7-4 11-4s8 2 12 4l243 244c6 6 6 16 0 22l-23 22z m-174 262c-276 0-500-182-500-406 0-93 39-178 103-247-29-77-89-142-90-143-13-13-17-33-9-50s24-29 43-29c120 0 215 50 272 91 56-18 117-28 181-28 276 0 500 182 500 406s-224 406-500 406z m0-750c-55 0-110 9-162 25l-30 10-26-18c-44-32-114-69-200-78 24 30 58 79 80 136l14 37-27 28c-57 60-86 131-86 204 0 190 196 344 437 344s438-154 438-344-197-344-438-344z" horiz-adv-x="1000" />

<glyph glyph-name="comment-dots" unicode="&#xe9ed;" d="M250 422c-26 0-47-21-47-47s21-47 47-47 47 21 47 47-21 47-47 47z m250 0c-26 0-47-21-47-47s21-47 47-47 47 21 47 47-21 47-47 47z m250 0c-26 0-47-21-47-47s21-47 47-47 47 21 47 47-21 47-47 47z m-250 359c-276 0-500-182-500-406 0-93 39-178 103-247-29-77-89-142-90-143-13-13-17-33-9-50s24-29 43-29c120 0 215 50 272 91 56-18 117-28 181-28 276 0 500 182 500 406s-224 406-500 406z m0-750c-55 0-110 9-162 25l-30 10-26-18c-44-32-114-69-200-78 24 30 58 79 80 136l14 37-27 28c-57 60-86 131-86 204 0 190 196 344 437 344s438-154 438-344-197-344-438-344z" horiz-adv-x="1000" />

<glyph glyph-name="comment-edit" unicode="&#xe9ee;" d="M656 575c-24 25-64 25-88 0l-246-246c-4-4-7-8-8-14l-32-119c-2-11 0-23 8-31 6-5 14-9 23-9 2 0 5 1 7 1l120 32c5 1 10 4 14 8l246 246c25 24 25 64 0 88l-44 44z m-240-328l-60-16 16 60 146 147 45-45-147-146z m191 191l-44 44 49 49 44-44-49-49z m-107 343c-276 0-500-182-500-406 0-93 39-178 103-247-29-77-89-142-90-143-13-13-17-33-9-50s24-29 43-29c120 0 215 50 272 91 56-18 117-28 181-28 276 0 500 182 500 406s-224 406-500 406z m0-750c-55 0-110 9-162 25l-30 10-26-18c-44-32-114-69-200-78 24 30 58 79 80 136l14 37-27 28c-57 60-86 131-86 204 0 190 196 344 437 344s438-154 438-344-197-344-438-344z" horiz-adv-x="1000" />

<glyph glyph-name="comment-exclamation" unicode="&#xe9ef;" d="M500 266c-26 0-47-21-47-47s21-47 47-47 47 21 47 47-21 47-47 47z m-17 47h34c8 0 15 6 15 14l14 219c1 9-7 17-16 17h-60c-9 0-16-8-16-17l14-219c0-8 7-14 15-14z m17 468c-276 0-500-182-500-406 0-93 39-178 103-247-29-77-89-142-90-143-13-13-17-33-9-50s24-29 43-29c120 0 215 50 272 91 56-18 117-28 181-28 276 0 500 182 500 406s-224 406-500 406z m0-750c-55 0-110 9-162 25l-30 10-26-18c-44-32-114-69-200-78 24 30 58 79 80 136l14 37-27 28c-57 60-86 131-86 204 0 190 196 344 437 344s438-154 438-344-197-344-438-344z" horiz-adv-x="1000" />

<glyph glyph-name="comment-lines" unicode="&#xe9f0;" d="M547 313h-281c-9 0-16-7-16-16v-31c0-9 7-16 16-16h281c9 0 16 7 16 16v31c0 9-7 16-16 16z m187 187h-468c-9 0-16-7-16-16v-31c0-8 7-15 16-15h468c9 0 16 7 16 15v31c0 9-7 16-16 16z m-234 281c-276 0-500-182-500-406 0-93 39-178 103-247-29-77-89-142-90-143-13-13-17-33-9-50s24-29 43-29c120 0 215 50 272 91 56-18 117-28 181-28 276 0 500 182 500 406s-224 406-500 406z m0-750c-55 0-110 9-162 25l-30 10-26-18c-44-32-114-69-200-78 24 30 58 79 80 136l14 37-27 28c-57 60-86 131-86 204 0 190 196 344 437 344s438-154 438-344-197-344-438-344z" horiz-adv-x="1000" />

<glyph glyph-name="comments" unicode="&#xe9f3;" d="M1039 90c54 52 86 119 86 191 0 157-149 286-344 309-61 112-206 191-375 191-224 0-406-140-406-312 0-72 32-139 86-192-30-60-73-106-74-107-12-13-16-32-8-49 7-17 23-27 41-27 105 0 189 39 245 75 17-4 36-7 54-9 62-112 206-191 375-191 41 0 80 4 117 13 55-36 140-76 244-76 18 0 35 11 42 27 7 17 3 36-9 49-1 1-44 48-74 108z m-761 146l-22-14c-40-26-99-55-172-64 17 23 40 54 58 91l20 41-32 32c-31 30-67 80-67 147 0 138 154 250 343 250s344-112 344-250-154-250-344-250c-34 0-69 4-102 12l-26 5z m592-202l-23 15-25-6c-34-8-69-12-103-12-127 0-238 51-298 126 218 6 392 143 392 312 0 18-3 36-7 54 147-28 257-126 257-242 0-66-37-117-68-147l-32-32 20-40c18-37 41-69 58-91-73 8-132 38-171 63z m-74 523c0 0 0-1 0-1 0 0 0 1 0 1z" horiz-adv-x="1125" />

<glyph glyph-name="comments-alt" unicode="&#xe9f4;" d="M1000 531h-187v188c0 69-57 125-125 125h-563c-69 0-125-56-125-125v-313c0-69 56-125 125-125h63v-101c0-14 11-24 23-24 5 0 10 2 14 5l213 120h250c68 0 125 56 125 125v63h187c34 0 63-28 63-63v-312c0-35-29-63-63-63h-125v-97l-171 97h-204c-34 0-62 28-62 63v187l-63-35v-152c0-69 56-125 125-125h188l212-121c5-3 9-4 14-4 12 0 24 9 24 23v102h62c69 0 125 56 125 125v312c0 69-56 125-125 125z m-250-125c0-34-28-62-62-62h-267l-14-8-157-89v97h-125c-34 0-62 28-62 62v313c0 34 28 62 62 62h563c34 0 62-28 62-62v-313z" horiz-adv-x="1125" />

<glyph glyph-name="comment-slash" unicode="&#xe9f5;" d="M625 719c241 0 438-154 438-344 0-62-22-120-59-171l49-38c45 61 72 132 72 209 0 224-224 406-500 406-100 0-193-24-271-65l54-43c65 29 138 46 217 46z m619-823l-1199 944c-7 6-17 5-22-2l-19-24c-6-7-5-17 2-23l1199-944c7-5 17-4 22 3l20 24c5 7 4 17-3 22z m-619 135c-55 0-110 9-162 25l-30 10-26-18c-44-32-114-69-200-78 24 30 58 79 80 136l14 37-27 28c-57 60-86 131-86 204 0 46 11 89 32 129l-50 39c-29-51-45-108-45-168 0-93 39-178 103-247-29-77-89-142-90-143-13-13-17-33-9-50s24-29 43-29c120 0 215 50 272 91 56-18 117-28 181-28 79 0 154 15 221 42l-58 45c-50-16-105-25-163-25z" horiz-adv-x="1250" />

</font>
</defs>
</svg>
